<?xml version="1.0" standalone="no"?>
<!DOCTYPE svg PUBLIC "-//W3C//DTD SVG 1.1//EN" "http://www.w3.org/Graphics/SVG/1.1/DTD/svg11.dtd" >
<svg xmlns="http://www.w3.org/2000/svg" xmlns:xlink="http://www.w3.org/1999/xlink" version="1.1">
<metadata></metadata>
<defs>
<font id="futuralightcregular" horiz-adv-x="1122" >
<font-face units-per-em="2048" ascent="1536" descent="-512" />
<missing-glyph horiz-adv-x="477" />
<glyph horiz-adv-x="0" />
<glyph horiz-adv-x="682" />
<glyph unicode=" "  horiz-adv-x="477" />
<glyph unicode="&#x09;" horiz-adv-x="477" />
<glyph unicode="&#xa0;" horiz-adv-x="477" />
<glyph unicode="!" horiz-adv-x="532" d="M190 61q0 32 22 54t54 22t54 -22t22 -54t-22 -53.5t-54 -21.5t-54 21.5t-22 53.5zM221 244v1122h90v-1122h-90z" />
<glyph unicode="&#x22;" horiz-adv-x="573" d="M123 1366h90l-14 -551h-62zM360 1366h91l-15 -551h-61z" />
<glyph unicode="#" horiz-adv-x="1228" d="M94 453l12 77h242l49 330h-241l12 78h242l65 428h82l-65 -428h335l66 428h82l-66 -428h242l-12 -78h-242l-49 -330h242l-13 -77h-241l-68 -453h-82l68 453h-336l-68 -453h-82l68 453h-242zM430 530h336l49 330h-336z" />
<glyph unicode="$" horiz-adv-x="1048" d="M109 270l77 37q23 -67 74 -131q45 -57 112 -86t138 -31v635l-51 25q-99 46 -148 82.5t-80 87.5q-43 71 -43 155q0 139 90 236.5t232 103.5v183h82v-183q18 -2 34.5 -5t53 -16t66.5 -32t65 -56t59 -85l-65 -55q-5 11 -12.5 24.5t-26.5 37.5t-41 44t-57.5 38t-75.5 24v-553 q145 -66 203 -109q28 -19 48.5 -38t45 -51t38 -76.5t13.5 -98.5q0 -89 -41 -172t-121.5 -144t-185.5 -77v-203h-82v196q-189 0 -313 144q-61 70 -88 149zM283 1049q0 -90 55.5 -150.5t171.5 -107.5v512q-105 -6 -166 -81.5t-61 -172.5zM592 66q115 24 184.5 112t69.5 197 q0 134 -133 215q-3 1 -16 8.5t-40 21.5t-65 33v-587z" />
<glyph unicode="%" horiz-adv-x="1245" d="M70 1110q0 117 76 192.5t200 75.5t200.5 -75.5t76.5 -192.5t-76.5 -192.5t-200.5 -75.5t-200 75.5t-76 192.5zM152 1110q0 -76 50.5 -135.5t143.5 -59.5t144 59.5t51 135.5t-51 135.5t-144 59.5t-143.5 -59.5t-50.5 -135.5zM188 2l807 1395l62 -33l-807 -1395zM623 256 q0 117 76 192.5t200 75.5t200.5 -75.5t76.5 -192.5t-76.5 -192.5t-200.5 -75.5t-200 75.5t-76 192.5zM705 256q0 -76 50.5 -135.5t143.5 -59.5t144 59.5t51 135.5t-51 135.5t-144 59.5t-143.5 -59.5t-50.5 -135.5z" />
<glyph unicode="&#x26;" horiz-adv-x="1286" d="M135 326q0 65 18.5 123.5t44 98t65 78t68 59t66.5 44.5l146 94l-56 86q-81 127 -81 215q0 112 78.5 189.5t189.5 77.5q107 0 177.5 -73t70.5 -181q0 -106 -80 -197q-49 -55 -174 -141l333 -451q70 70 160 182l80 -36q-96 -131 -188 -218l204 -276h-114l-158 215l-24 -20 q-42 -35 -69 -56.5t-80 -57t-97.5 -56t-104.5 -36.5t-118 -16q-155 0 -256 100t-101 253zM229 332q0 -121 74.5 -199t190.5 -78q110 0 231.5 72.5t208.5 159.5l-342 467l-129 -84q-124 -80 -179 -159t-55 -179zM496 1118q0 -27 11 -58.5t21 -48.5t29 -48l59 -95 q47 27 100 70t77 76q38 50 38 125q0 79 -50 122.5t-115 43.5q-69 0 -119.5 -54.5t-50.5 -132.5z" />
<glyph unicode="'" horiz-adv-x="335" d="M123 1366h90l-14 -551h-62z" />
<glyph unicode="(" horiz-adv-x="569" d="M205 584q0 39 1 84.5t9 155.5t21.5 213t42.5 237.5t69 247.5l78 -47q-54 -180 -85 -385.5t-36.5 -310.5t-5.5 -195q0 -462 127 -893l-82 -47q-69 199 -104 453.5t-35 486.5z" />
<glyph unicode=")" horiz-adv-x="569" d="M143 -309q127 431 127 893q0 90 -5.5 195t-36.5 310.5t-85 385.5l78 47q49 -139 81.5 -300.5t44 -302.5t15 -211.5t3.5 -123.5q0 -231 -35.5 -486t-104.5 -454z" />
<glyph unicode="*" d="M238 1227l28 84l256 -90l-6 272h90l-6 -272l256 90l29 -84l-262 -78l165 -217l-71 -51l-156 225l-155 -225l-72 51l166 217z" />
<glyph unicode="+" horiz-adv-x="1024" d="M68 635v78h403v372h82v-372h403v-78h-403v-373h-82v373h-403z" />
<glyph unicode="," horiz-adv-x="466" d="M78 -281l123 414l82 -24l-152 -410z" />
<glyph unicode="-" horiz-adv-x="573" d="M82 377v94h410v-94h-410z" />
<glyph unicode="." horiz-adv-x="413" d="M131 61q0 32 22 54t54 22t54 -22t22 -54t-22 -53.5t-54 -21.5t-54 21.5t-22 53.5z" />
<glyph unicode="/" horiz-adv-x="1179" d="M41 -324l1032 1846l66 -33l-1033 -1845z" />
<glyph unicode="0" d="M66 682q0 164 46 301.5t128 235.5q138 165 321 165q184 0 322 -165q82 -98 128 -235.5t46 -301.5t-46 -301.5t-128 -235.5q-70 -84 -155 -126t-167 -42t-166 42t-155 126q-82 98 -128 235.5t-46 301.5zM160 682q0 -301 147 -483q112 -140 254 -140t254 140 q148 183 148 483t-148 483q-111 138 -254 138t-254 -138q-147 -182 -147 -483z" />
<glyph unicode="1" d="M344 1284l41 82h262v-1366h-90v1284h-213z" />
<glyph unicode="2" d="M123 0l524 578q111 125 150 184q80 121 80 233q0 131 -89.5 219.5t-228.5 88.5q-146 0 -235 -101q-83 -91 -80 -223h-90q-1 87 29 161.5t79 125.5q114 118 303 118q176 0 291 -111t115 -278q0 -142 -99 -280q-55 -77 -120 -148l-439 -485h652v-82h-842z" />
<glyph unicode="3" d="M156 332h90q3 -82 45 -146q38 -56 106 -91.5t135 -35.5q125 0 216.5 95t91.5 223q0 84 -36 149t-93 101q-73 47 -174 41v82q47 0 91 14.5t62 26t31 22.5q45 38 72.5 97.5t27.5 125.5q0 114 -69.5 190.5t-192.5 76.5q-127 0 -197 -80q-66 -72 -69 -183h-86q3 145 100 246 q96 98 252 98q163 0 259.5 -98.5t96.5 -243.5q0 -101 -51 -192t-164 -137q109 -35 171.5 -125.5t62.5 -208.5q0 -171 -117 -286.5t-285 -115.5q-96 0 -186 47t-141 132q-49 78 -49 176z" />
<glyph unicode="4" d="M25 260l825 1151v-1069h190v-82h-190v-260h-90v260h-735zM184 342h576v803z" />
<glyph unicode="5" d="M61 203l80 33q57 -85 143 -131t189 -46q169 0 279 111t110 283q0 173 -107.5 283t-277.5 110q-117 0 -213 -60l176 580h523v-82h-459l-115 -369q54 13 92 13q215 0 345 -133t130 -340q0 -143 -66 -253.5t-175.5 -167.5t-243.5 -57q-121 0 -231.5 54t-178.5 172z" />
<glyph unicode="6" d="M74 463q0 152 88 278l454 643l70 -53l-303 -430q86 37 186 37q204 0 339.5 -134.5t135.5 -342.5q0 -207 -137.5 -345.5t-349.5 -138.5q-208 0 -345.5 137t-137.5 349zM168 459q0 -172 112 -286t279 -114q168 0 279.5 115t111.5 285q0 174 -110.5 285.5t-280.5 111.5 t-280.5 -113t-110.5 -284z" />
<glyph unicode="7" d="M45 29l885 1255h-830v82h990l-977 -1389z" />
<glyph unicode="8" d="M166 362q0 116 58.5 211.5t164.5 135.5q-53 28 -91 67.5t-56.5 73.5t-29 74.5t-12 60t-1.5 39.5q0 155 104 257.5t258 102.5t258.5 -102.5t104.5 -257.5q0 -27 -4.5 -55t-20.5 -78.5t-58.5 -99t-107.5 -82.5q106 -40 164.5 -135.5t58.5 -211.5t-54 -204.5t-143.5 -134.5 t-197.5 -46t-197.5 46t-143.5 134.5t-54 204.5zM260 362q0 -129 83 -216t218 -87t218 87t83 216q0 135 -84.5 221.5t-216.5 86.5t-216.5 -86.5t-84.5 -221.5zM293 1024q0 -119 78.5 -197.5t189.5 -78.5t189.5 78.5t78.5 197.5q0 120 -77.5 199.5t-190.5 79.5t-190.5 -79.5 t-77.5 -199.5z" />
<glyph unicode="9" d="M78 903q0 206 137 343.5t350 137.5q208 0 346 -136.5t138 -346.5q0 -152 -88 -278l-455 -646l-70 54l303 432q-86 -37 -186 -37q-204 0 -339.5 134.5t-135.5 342.5zM172 905q0 -174 111.5 -285.5t279.5 -111.5q170 0 280.5 113t110.5 284q0 169 -111.5 283.5 t-279.5 114.5t-279.5 -115t-111.5 -283z" />
<glyph unicode=":" horiz-adv-x="413" d="M131 61q0 32 22 54t54 22t54 -22t22 -54t-22 -53.5t-54 -21.5t-54 21.5t-22 53.5zM131 778q0 32 22 54t54 22t54 -22t22 -54t-22 -54t-54 -22t-54 22t-22 54z" />
<glyph unicode=";" horiz-adv-x="466" d="M78 -281l123 414l82 -24l-152 -410zM135 778q0 32 22 54t54 22t54 -22t22 -54t-22 -54t-54 -22t-54 22t-22 54z" />
<glyph unicode="&#x3c;" horiz-adv-x="1024" d="M68 633v78l888 393v-84l-798 -348l798 -348v-84z" />
<glyph unicode="=" horiz-adv-x="1024" d="M68 489v78h888v-78h-888zM68 780v78h888v-78h-888z" />
<glyph unicode="&#x3e;" horiz-adv-x="1024" d="M68 240v84l798 348l-798 348v84l888 -393v-78z" />
<glyph unicode="?" horiz-adv-x="954" d="M152 1055q0 152 90 237q93 86 237 86q152 0 240 -92q84 -86 84 -239q0 -132 -74 -218q-66 -73 -182 -104q-15 -4 -52 -13.5t-56 -15t-44.5 -16.5t-42.5 -25q-69 -56 -69 -151q0 -85 51 -139q56 -60 145 -60q109 0 162 74q35 49 35 147h82q0 -108 -43 -180 q-31 -53 -91 -86t-143 -33q-60 0 -115.5 20.5t-91.5 53.5q-37 34 -59 90t-22 117q0 127 90 203q55 46 168 73q2 1 22 5.5t24 5.5l22 5.5t23.5 6.5t20.5 7t21.5 9t19 10t20 11.5t16.5 13.5t17 16q52 59 52 168q0 118 -62 185q-62 69 -174 69t-174 -69q-57 -62 -57 -185 q0 -40 14 -81h-90q-14 46 -14 94zM403 61q0 32 22 54t54 22t54 -22t22 -54t-22 -53.5t-54 -21.5t-54 21.5t-22 53.5z" />
<glyph unicode="@" horiz-adv-x="1499" d="M66 678q0 195 93.5 356.5t255.5 253.5t357 92q175 0 321 -74t235 -214t89 -318q0 -207 -100.5 -348t-226.5 -141q-66 0 -108 41.5t-38 107.5q-41 -74 -110.5 -113.5t-147.5 -39.5q-130 0 -207.5 94.5t-77.5 234.5q0 174 102 298t257 124q13 0 25 -1t39 -5.5t50.5 -17 t49 -31.5t46 -53t31.5 -78l31 160h66l-88 -455q-15 -67 -15 -100q0 -43 24.5 -76t72.5 -33q69 0 130 59.5t97.5 159.5t36.5 213q0 162 -79 287.5t-211.5 191.5t-293.5 66q-177 0 -323.5 -84t-230 -230.5t-83.5 -322.5q0 -129 44.5 -247t133 -211t207.5 -140q123 -49 285 -49 q92 0 199 21t180 57q26 13 35.5 17.5t17 8t23.5 11.5l24 -60q-120 -62 -244 -90q-127 -27 -237 -27q-159 0 -296 53t-234 145.5t-152 223.5t-55 283zM473 612q0 -125 66 -195.5t157 -70.5q110 0 189.5 105.5t79.5 277.5q0 22 -2.5 45t-14 60t-31 64.5t-59 48t-92.5 20.5 q-88 0 -156.5 -51.5t-102.5 -131.5t-34 -172z" />
<glyph unicode="A" horiz-adv-x="1200" d="M29 0l575 1407l567 -1407h-98l-182 449h-582l-182 -449h-98zM342 530h516l-256 648z" />
<glyph unicode="B" horiz-adv-x="1093" d="M184 0v1366h299q176 0 276.5 -93t100.5 -249q0 -201 -160 -299q132 -21 207.5 -114.5t75.5 -227.5q0 -177 -117.5 -280t-306.5 -103h-375zM274 82h230q64 0 101 2.5t95 22t101 57.5q88 78 88 209q0 187 -146 254q-90 39 -256 39h-213v-584zM274 748h218q59 0 102 11.5 t84 45.5q90 74 90 209q0 137 -92 213q-73 57 -227 57h-175v-536z" />
<glyph unicode="C" horiz-adv-x="1388" d="M111 680q0 193 94.5 355t257 255.5t356.5 93.5q74 0 144 -15.5t118 -35.5t93 -48t65.5 -45t38.5 -34v-119q-88 103 -208.5 159.5t-252.5 56.5q-129 0 -243 -49.5t-194.5 -134t-127.5 -200t-47 -243.5q0 -117 37.5 -219.5t99.5 -174t142 -123t165.5 -76t169.5 -24.5 q115 0 238.5 50.5t220.5 156.5v-119q-99 -87 -217.5 -128.5t-237.5 -41.5q-200 0 -364.5 96t-256 257t-91.5 350z" />
<glyph unicode="D" horiz-adv-x="1265" d="M184 0v1366h271q313 0 503 -190q101 -101 149 -234.5t48 -259.5t-48 -258.5t-149 -233.5q-190 -190 -503 -190h-271zM274 82h179q270 0 439 167t169 433q0 263 -170 432.5t-438 169.5h-179v-1202z" />
<glyph unicode="E" horiz-adv-x="950" d="M184 0v1366h656v-82h-566v-496h553v-81h-553v-625h566v-82h-656z" />
<glyph unicode="F" horiz-adv-x="831" d="M184 0v1366h553v-82h-463v-496h451v-81h-451v-707h-90z" />
<glyph unicode="G" horiz-adv-x="1581" d="M111 680q0 199 95 361t257.5 252.5t359.5 90.5q238 0 428 -147q96 -76 164 -172l-72 -57q-48 82 -131 151q-172 144 -391 144q-172 0 -313.5 -83.5t-222 -227.5t-80.5 -316q0 -169 78.5 -310.5t218.5 -224t313 -82.5q162 0 287.5 68.5t187.5 163.5q39 60 63 137t27 145 h-483v82h573q0 -272 -139 -448q-89 -114 -222 -172t-292 -58q-198 0 -359.5 90t-254 251t-92.5 362z" />
<glyph unicode="H" horiz-adv-x="1376" d="M184 0v1366h90v-580h828v580h90v-1366h-90v705h-828v-705h-90z" />
<glyph unicode="I" horiz-adv-x="458" d="M184 0v1366h90v-1366h-90z" />
<glyph unicode="J" horiz-adv-x="540" d="M-111 -137l64 49q26 -49 70 -82t100 -33q33 0 58.5 10t40.5 29t24.5 38t13.5 46t5 44t1 40v1362h90v-1362q0 -289 -237 -289q-61 0 -111 26t-75 55.5t-44 66.5z" />
<glyph unicode="K" horiz-adv-x="1105" d="M184 0v1366h90v-643l646 643h118l-661 -653l700 -713h-123l-643 651l-37 -35v-616h-90z" />
<glyph unicode="L" horiz-adv-x="684" d="M184 0v1366h90v-1284h381v-82h-471z" />
<glyph unicode="M" horiz-adv-x="1835" d="M170 0l156 1413l592 -1263l591 1263l156 -1413h-90l-121 1098l-536 -1147l-537 1147l-121 -1098h-90z" />
<glyph unicode="N" horiz-adv-x="1605" d="M184 0v1380l1147 -1200v1186h90v-1401l-1147 1200v-1165h-90z" />
<glyph unicode="O" horiz-adv-x="1638" d="M111 680q0 145 55 275.5t149 224.5t225.5 149t278.5 55q196 0 359 -93.5t256.5 -255t93.5 -355.5q0 -145 -55 -275t-149.5 -224t-226 -149t-278.5 -55t-278.5 55t-225.5 149t-149 224t-55 275zM205 680q0 -172 79.5 -314t220.5 -224.5t314 -82.5q130 0 244.5 48.5 t195.5 131.5t128 197.5t47 243.5q0 173 -79.5 315.5t-221 225t-314.5 82.5t-314 -82.5t-220.5 -225t-79.5 -315.5z" />
<glyph unicode="P" horiz-adv-x="913" d="M184 0v1366h265q174 0 286.5 -93.5t112.5 -262.5q0 -168 -109 -264.5t-288 -96.5h-177v-649h-90zM274 731h181q135 0 217 74.5t82 202.5t-83 202t-231 74h-166v-553z" />
<glyph unicode="Q" horiz-adv-x="1638" d="M111 680q0 145 55 275.5t149 224.5t225.5 149t278.5 55q195 0 358 -93.5t257 -255t94 -355.5q0 -285 -197 -492l176 -188h-118l-121 131q-193 -154 -449 -154q-147 0 -278.5 55t-225.5 149t-149 224t-55 275zM205 680q0 -172 79.5 -314t220.5 -224.5t314 -82.5 q220 0 391 134l-342 366h119l285 -307q162 176 162 428q0 172 -79.5 314.5t-221 225.5t-314.5 83t-314 -82.5t-220.5 -225t-79.5 -315.5z" />
<glyph unicode="R" horiz-adv-x="958" d="M184 0v1366h197q91 0 159 -14t130 -56q141 -98 141 -292q0 -112 -55 -202t-174 -130q-78 -27 -168 -27l446 -645h-102l-443 645h-41v-645h-90zM274 727h132q146 0 228.5 73.5t82.5 205.5q0 93 -36 151.5t-85 85.5q-71 41 -209 41h-113v-557z" />
<glyph unicode="S" horiz-adv-x="1052" d="M111 270l77 37q23 -67 74 -131q44 -57 113.5 -87t142.5 -30q139 0 234.5 91t95.5 225t-133 215q-41 25 -254 129q-97 47 -146 81.5t-82 88.5q-43 71 -43 155q0 49 13 96.5t41 91.5t68 78t99 54t130 20q105 0 192.5 -49.5t138.5 -144.5l-65 -55q-29 57 -70 94.5 t-83.5 51.5t-66.5 18t-48 4q-117 0 -185.5 -73.5t-68.5 -180.5q0 -31 7 -58t16 -47t29 -40t34.5 -33t46 -31t49.5 -27.5t57 -28.5q30 -15 86.5 -42t77.5 -37.5t52.5 -28t56.5 -35.5q28 -19 48.5 -38t45 -51t38 -76.5t13.5 -98.5q0 -170 -124.5 -285t-301.5 -115 q-193 0 -317 144q-61 70 -88 149z" />
<glyph unicode="T" horiz-adv-x="856" d="M29 1284v82h798v-82h-354v-1284h-90v1284h-354z" />
<glyph unicode="U" horiz-adv-x="1298" d="M184 512v854h90v-854q0 -108 11 -173t47 -122q28 -46 69.5 -79t86.5 -49t84.5 -23t76.5 -7q85 0 174.5 36t143.5 122q36 57 46.5 121.5t10.5 173.5v854h90v-854q0 -127 -14.5 -203t-63.5 -147q-126 -185 -387 -185t-387 185q-49 71 -63.5 147t-14.5 203z" />
<glyph unicode="V" horiz-adv-x="1044" d="M29 1366h98l401 -1163l390 1163h98l-488 -1421z" />
<glyph unicode="W" horiz-adv-x="2015" d="M29 1366h98l377 -1159l493 1233l463 -1233l428 1159h99l-527 -1417l-463 1241l-508 -1241z" />
<glyph unicode="X" horiz-adv-x="962" d="M47 0l375 696l-359 670h99l309 -584l311 584h99l-357 -670l375 -696h-98l-330 614l-326 -614h-98z" />
<glyph unicode="Y" horiz-adv-x="1056" d="M29 1366h102l393 -690l402 690h102l-461 -782v-584h-90v584z" />
<glyph unicode="Z" horiz-adv-x="1134" d="M76 0l831 1284h-751v82h903l-832 -1284h809v-82h-960z" />
<glyph unicode="[" horiz-adv-x="569" d="M180 -328v1821h307v-82h-217v-1657h217v-82h-307z" />
<glyph unicode="\" horiz-adv-x="1179" d="M41 1489l65 33l1033 -1846l-66 -32z" />
<glyph unicode="]" horiz-adv-x="569" d="M82 -246h217v1657h-217v82h307v-1821h-307v82z" />
<glyph unicode="^" horiz-adv-x="1024" d="M76 782l381 584h110l381 -584h-94l-342 521l-342 -521h-94z" />
<glyph unicode="_" horiz-adv-x="1024" d="M0 -160h1024v-78h-1024v78z" />
<glyph unicode="`" horiz-adv-x="1024" d="M293 1219l88 51l188 -281l-61 -33z" />
<glyph unicode="a" horiz-adv-x="1056" d="M94 418q0 194 112.5 315t295.5 121q209 0 325 -164v146h82v-836h-82v150q-59 -90 -146 -131.5t-179 -41.5q-82 0 -156 31t-130 86.5t-89 139.5t-33 184zM180 424q0 -96 37 -179t113.5 -136.5t177.5 -53.5q76 0 138.5 30.5t102 82t61 117.5t21.5 139q0 89 -30 159 t-79 110.5t-104.5 61.5t-111.5 21q-133 0 -229.5 -95t-96.5 -257z" />
<glyph unicode="b" horiz-adv-x="1056" d="M147 0v1493h82v-803q120 164 328 164q185 0 295.5 -122t110.5 -308q0 -92 -28.5 -173.5t-80.5 -142t-130 -96t-171 -35.5q-72 0 -132.5 20t-99.5 52.5t-58.5 55t-33.5 45.5v-150h-82zM225 428q0 -163 86.5 -268t239.5 -105t239.5 104.5t86.5 264.5q0 165 -94 258.5 t-230 93.5q-63 0 -121 -22.5t-104.5 -64.5t-74.5 -109.5t-28 -151.5z" />
<glyph unicode="c" horiz-adv-x="905" d="M94 412q0 191 118.5 316.5t315.5 125.5q162 0 289 -106v-109q-120 137 -289 137q-152 0 -250 -103.5t-98 -258.5q0 -86 30.5 -156.5t81 -113.5t110.5 -66t122 -23q166 0 303 150v-111q-131 -117 -305 -117q-188 0 -308 124t-120 311z" />
<glyph unicode="d" horiz-adv-x="1056" d="M94 422q0 110 35 195.5t94.5 135.5t130.5 75.5t150 25.5q208 0 323 -164v803h82v-1493h-82v150q-58 -90 -145.5 -131.5t-177.5 -41.5q-80 0 -153 29t-131 83t-92 140.5t-34 192.5zM180 424q0 -88 27.5 -160t73.5 -116.5t104.5 -68.5t122.5 -24q133 0 228 97.5t95 271.5 q0 151 -88 251.5t-239 100.5q-137 0 -230.5 -92.5t-93.5 -259.5z" />
<glyph unicode="e" horiz-adv-x="989" d="M94 414q0 105 34.5 190.5t92 139t129.5 82t150 28.5q172 0 286 -125q109 -119 109 -302v-19h-715v-20q0 -142 94 -234q100 -100 238 -99q98 0 174 52t117 139l69 -41q-21 -40 -50 -76t-72.5 -72.5t-107 -58t-136.5 -21.5q-190 0 -301 124t-111 313zM186 485h623 q-15 126 -100.5 208.5t-208.5 82.5q-124 0 -210 -83t-104 -208z" />
<glyph unicode="f" horiz-adv-x="438" d="M53 758v78h94v397q0 84 20 143.5t54 88.5t69.5 41t76.5 12q25 0 71 -13v-75q-25 10 -63 10q-31 0 -54 -8t-45.5 -30.5t-34.5 -69t-12 -115.5v-381h209v-78h-209v-758h-82v758h-94z" />
<glyph unicode="g" horiz-adv-x="1064" d="M88 -121h86q10 -129 99.5 -204.5t224.5 -75.5q68 0 122.5 19t89 48t60 71t37.5 78t19.5 81t8.5 69t1 51v127q-60 -84 -147.5 -125t-182.5 -41q-78 0 -151 28.5t-131.5 82t-94 139.5t-35.5 191q0 122 50 220.5t147 157t225 58.5q101 0 183 -43t137 -121v146h82v-820 q0 -235 -111.5 -365t-308.5 -130q-170 0 -286.5 95.5t-123.5 262.5zM180 414q0 -154 89.5 -256.5t234.5 -102.5q152 0 244 104.5t92 262.5q0 151 -91 252.5t-241 101.5t-239 -105.5t-89 -256.5z" />
<glyph unicode="h" horiz-adv-x="905" d="M147 0v1493h82v-788q83 149 256 149q52 0 95.5 -13.5t71 -35t41.5 -37t24 -31.5q41 -65 41 -211v-526h-82v526q0 118 -33 168q-48 82 -164 82q-139 0 -205 -117q-45 -80 -45 -225v-434h-82z" />
<glyph unicode="i" horiz-adv-x="376" d="M115 1114q0 33 21 54.5t52 21.5t52.5 -21.5t21.5 -54.5t-21.5 -54.5t-52.5 -21.5t-52 21.5t-21 54.5zM147 0v836h82v-836h-82z" />
<glyph unicode="j" horiz-adv-x="376" d="M115 1114q0 33 21 54.5t52 21.5t52.5 -21.5t21.5 -54.5t-21.5 -54.5t-52.5 -21.5t-52 21.5t-21 54.5zM147 -489v1325h82v-1325h-82z" />
<glyph unicode="k" horiz-adv-x="811" d="M147 0v1493h82v-1016l344 359h107l-352 -363l467 -473h-111l-412 414l-43 -43v-371h-82z" />
<glyph unicode="l" horiz-adv-x="376" d="M147 0v1493h82v-1493h-82z" />
<glyph unicode="m" horiz-adv-x="1335" d="M147 0v836h82v-105q71 123 217 123q47 0 86 -12t63 -28.5t43 -39.5t27.5 -39t14.5 -33q35 74 99.5 113t148.5 39q118 0 188 -70q32 -32 49 -76t20 -75.5t3 -75.5v-557h-82v557q0 121 -49 172q-45 47 -125 47q-45 0 -81.5 -13t-59.5 -31.5t-39.5 -47t-24.5 -51.5 t-12.5 -53t-5 -44.5t-0.5 -31.5v-504h-82v537q0 24 -1.5 46t-12 60t-28.5 65t-55 47.5t-88 20.5q-105 0 -159 -81t-54 -212v-483h-82z" />
<glyph unicode="n" horiz-adv-x="905" d="M147 0v836h82v-131q83 149 256 149q52 0 95.5 -13.5t71 -35t41.5 -37t24 -31.5q41 -65 41 -211v-526h-82v526q0 118 -33 168q-48 82 -164 82q-139 0 -205 -117q-45 -80 -45 -225v-434h-82z" />
<glyph unicode="o" horiz-adv-x="1064" d="M94 416q0 186 126 312t312 126t312.5 -126t126.5 -312t-126.5 -312.5t-312.5 -126.5t-312 126.5t-126 312.5zM180 416q0 -153 101 -257t251 -104t251.5 104t101.5 257t-101.5 256.5t-251.5 103.5t-251 -103.5t-101 -256.5z" />
<glyph unicode="p" horiz-adv-x="1056" d="M147 -489v1325h82v-146q120 164 328 164q185 0 295.5 -122t110.5 -308q0 -92 -28.5 -173.5t-80.5 -142t-130 -96t-171 -35.5q-72 0 -132.5 20t-99.5 52.5t-58.5 55t-33.5 45.5v-639h-82zM225 428q0 -163 86.5 -268t239.5 -105t239.5 104.5t86.5 264.5q0 165 -94 258.5 t-230 93.5q-63 0 -121 -22.5t-104.5 -64.5t-74.5 -109.5t-28 -151.5z" />
<glyph unicode="q" horiz-adv-x="1056" d="M94 422q0 110 35 195.5t94.5 135.5t130.5 75.5t150 25.5q208 0 323 -164v146h82v-1325h-82v639q-58 -90 -145.5 -131.5t-177.5 -41.5q-80 0 -153 29t-131 83t-92 140.5t-34 192.5zM180 424q0 -88 27.5 -160t73.5 -116.5t104.5 -68.5t122.5 -24q133 0 228 97.5t95 271.5 q0 151 -88 251.5t-239 100.5q-137 0 -230.5 -92.5t-93.5 -259.5z" />
<glyph unicode="r" horiz-adv-x="532" d="M147 0v836h82v-109q25 57 72.5 92t112.5 35q49 0 88 -20l-41 -74q-21 16 -62 16q-40 0 -70.5 -16t-48.5 -47t-29 -60.5t-15.5 -73.5t-5.5 -68.5t-1 -61.5v-449h-82z" />
<glyph unicode="s" horiz-adv-x="700" d="M78 199l80 24q21 -80 79 -124t130 -44q80 0 133 52t53 133q0 65 -37.5 100t-122.5 70q-10 4 -34.5 14.5t-33.5 14.5t-29 13t-29 14t-23.5 13.5t-23.5 15.5t-18.5 16t-17.5 19q-37 51 -37 109q0 94 64 154.5t160 60.5q75 0 132.5 -34.5t86.5 -100.5l-70 -37 q-21 47 -59.5 70.5t-85.5 23.5q-66 0 -104 -41t-38 -92q0 -29 10.5 -50.5t32.5 -37.5t45 -27t58 -25q12 -5 18 -7q8 -3 33.5 -13t37 -14.5t33.5 -15t35.5 -20t30 -24t29.5 -30.5q43 -53 43 -135q0 -68 -24 -121t-64 -84t-87 -46.5t-97 -15.5q-106 0 -184.5 59.5 t-104.5 162.5z" />
<glyph unicode="t" horiz-adv-x="397" d="M61 758v78h93v299h82v-299h145v-78h-145v-758h-82v758h-93z" />
<glyph unicode="u" horiz-adv-x="897" d="M147 309v527h82v-504q0 -144 54 -209q57 -68 166 -68q108 0 165 68q54 65 54 209v504h82v-527q0 -146 -64 -229q-79 -103 -237 -103q-159 0 -238 103q-64 83 -64 229z" />
<glyph unicode="v" horiz-adv-x="798" d="M16 836h90l295 -695l291 695h90l-381 -887z" />
<glyph unicode="w" horiz-adv-x="1376" d="M16 836h90l289 -691l289 742l289 -742l297 691h90l-387 -887l-289 741l-289 -741z" />
<glyph unicode="x" horiz-adv-x="819" d="M16 0l338 438l-309 398h100l265 -344l260 344h100l-303 -398l336 -438h-101l-292 385l-293 -385h-101z" />
<glyph unicode="y" horiz-adv-x="876" d="M16 836h95l350 -744l305 744h94l-557 -1325h-94l205 475z" />
<glyph unicode="z" horiz-adv-x="925" d="M37 0l684 758h-578v78h746l-676 -758h672v-78h-848z" />
<glyph unicode="{" horiz-adv-x="569" d="M82 553v59q40 11 66 31.5t37 51t14.5 56.5t3.5 66v397q0 40 2 67t17 72t44 74q66 66 201 66h25v-82q-44 5 -90 -8.5t-70 -40.5q-39 -43 -39 -154v-397q0 -98 -28 -150t-103 -79q131 -48 131 -238v-373q0 -127 39 -170q24 -27 70 -40t90 -7v-82h-19q-146 0 -209 70 q-61 67 -61 246v360q0 36 -3 60.5t-13.5 57.5t-37 55t-67.5 32z" />
<glyph unicode="|" horiz-adv-x="1024" d="M471 -512v2048h82v-2048h-82z" />
<glyph unicode="}" horiz-adv-x="569" d="M78 -246q44 -6 90 7t70 40q38 42 38 170v373q0 189 132 238q-75 27 -103.5 79t-28.5 150v397q0 34 -1 52.5t-10 50t-27 51.5q-24 27 -70 40.5t-90 8.5v82h24q135 0 201 -66q64 -64 64 -213v-397q0 -40 3 -66t14 -56.5t37 -51t66 -31.5v-59q-41 -10 -67.5 -32t-37 -55.5 t-13 -57.5t-2.5 -60v-360q0 -177 -62 -246q-63 -70 -209 -70h-18v82z" />
<glyph unicode="~" horiz-adv-x="1228" d="M127 1253q40 82 96 138q75 71 174 71q35 0 79 -13.5t72.5 -27.5t80.5 -41q88 -45 130.5 -60t80.5 -15q78 0 133 55q42 42 74 104l55 -32q-37 -74 -80 -119q-82 -86 -195 -86q-51 0 -114.5 24t-161.5 78q-33 19 -49.5 27.5t-48 18t-62.5 9.5q-75 0 -131 -53 q-48 -45 -78 -110z" />
<glyph unicode="&#xa9;" horiz-adv-x="1515" d="M55 682q0 143 55.5 273.5t149.5 225t224.5 150t273.5 55.5t273 -55.5t224 -150t149.5 -225t55.5 -273.5t-55.5 -272.5t-149.5 -224t-224 -150t-273 -55.5t-273.5 55.5t-224.5 150t-149.5 224t-55.5 272.5zM125 682q0 -130 50.5 -248.5t135.5 -204.5t202.5 -137t244.5 -51 t244.5 51t202.5 137t135.5 204.5t50.5 248.5t-50.5 249t-135 205t-202 137.5t-245.5 51.5t-245.5 -51.5t-202 -137.5t-135 -205t-50.5 -249zM383 674q0 174 115.5 287.5t287.5 113.5q152 0 265 -104v-109q-103 139 -267 139q-141 0 -232 -93t-91 -236q0 -138 93 -231 t232 -93q74 0 143 33.5t122 99.5v-106q-125 -101 -265 -101q-172 0 -287.5 113.5t-115.5 286.5z" />
<glyph unicode="&#xab;" horiz-adv-x="712" d="M66 424l266 307l53 -49l-221 -258l221 -258l-53 -49zM283 424l266 307l53 -49l-221 -258l221 -258l-53 -49z" />
<glyph unicode="&#xad;" horiz-adv-x="573" d="M82 377v94h410v-94h-410z" />
<glyph unicode="&#xae;" horiz-adv-x="1515" d="M55 682q0 143 55.5 273.5t149.5 225t224.5 150t273.5 55.5t273 -55.5t224 -150t149.5 -225t55.5 -273.5t-55.5 -272.5t-149.5 -224t-224 -150t-273 -55.5t-273.5 55.5t-224.5 150t-149.5 224t-55.5 272.5zM125 682q0 -130 50.5 -248.5t135.5 -204.5t202.5 -137t244.5 -51 t244.5 51t202.5 137t135.5 204.5t50.5 248.5t-50.5 249t-135 205t-202 137.5t-245.5 51.5t-245.5 -51.5t-202 -137.5t-135 -205t-50.5 -249zM608 276v758h127q125 0 183.5 -48t58.5 -159q0 -136 -131 -186q-25 -9 -40 -10t-34 -6l242 -349h-82l-240 351h-14v-351h-70z M678 690h70q157 0 157 139q0 35 -7.5 61t-23.5 40.5t-30 23.5t-38 12.5t-35 4t-34 0.5h-59v-281z" />
<glyph unicode="&#xbb;" horiz-adv-x="712" d="M111 166l221 258l-221 258l53 49l266 -307l-266 -307zM328 166l221 258l-221 258l53 49l266 -307l-266 -307z" />
<glyph unicode="&#x401;" horiz-adv-x="950" d="M184 0v1366h656v-82h-566v-496h553v-81h-553v-625h566v-82h-656zM248 1597q0 32 23 55t55 23t54.5 -23t22.5 -55t-22.5 -54.5t-54.5 -22.5t-55 22.5t-23 54.5zM629 1597q0 32 23 55t55 23t54.5 -23t22.5 -55t-22.5 -54.5t-54.5 -22.5t-55 22.5t-23 54.5z" />
<glyph unicode="&#x402;" horiz-adv-x="1372" d="M29 1284v82h839v-82h-409v-512q146 23 311 23q193 0 307 -58q34 -17 64 -41t63.5 -64.5t53.5 -104t20 -140.5q0 -62 -13.5 -120t-42.5 -111t-71 -92.5t-103.5 -63t-134.5 -23.5q-133 0 -245 62l32 80q105 -60 215 -60q121 0 195 88.5t74 235.5q0 212 -164 285 q-96 45 -250 45q-140 0 -311 -23v-690h-90v1284h-340z" />
<glyph unicode="&#x403;" horiz-adv-x="819" d="M184 0v1366h607v-82h-517v-1284h-90zM410 1477l237 272l103 -51l-275 -258z" />
<glyph unicode="&#x404;" horiz-adv-x="1388" d="M111 680q0 193 94.5 355t257 255.5t356.5 93.5q74 0 144 -15.5t118 -35.5t93 -48t65.5 -45t38.5 -34v-119q-88 103 -208.5 159.5t-252.5 56.5q-154 0 -287.5 -71.5t-219.5 -199.5t-101 -287h905v-81h-909q2 -112 39 -210.5t98 -169.5t139 -122.5t164.5 -77t173.5 -25.5 q115 0 238.5 50.5t220.5 156.5v-119q-99 -87 -217.5 -128.5t-237.5 -41.5q-200 0 -364.5 96t-256 257t-91.5 350z" />
<glyph unicode="&#x405;" horiz-adv-x="1052" d="M111 270l77 37q23 -67 74 -131q44 -57 113.5 -87t142.5 -30q139 0 234.5 91t95.5 225t-133 215q-41 25 -254 129q-97 47 -146 81.5t-82 88.5q-43 71 -43 155q0 49 13 96.5t41 91.5t68 78t99 54t130 20q105 0 192.5 -49.5t138.5 -144.5l-65 -55q-29 57 -70 94.5 t-83.5 51.5t-66.5 18t-48 4q-117 0 -185.5 -73.5t-68.5 -180.5q0 -31 7 -58t16 -47t29 -40t34.5 -33t46 -31t49.5 -27.5t57 -28.5q30 -15 86.5 -42t77.5 -37.5t52.5 -28t56.5 -35.5q28 -19 48.5 -38t45 -51t38 -76.5t13.5 -98.5q0 -170 -124.5 -285t-301.5 -115 q-193 0 -317 144q-61 70 -88 149z" />
<glyph unicode="&#x406;" horiz-adv-x="458" d="M184 0v1366h90v-1366h-90z" />
<glyph unicode="&#x407;" horiz-adv-x="458" d="M20 1597q0 32 23 55t55 23t55 -23t23 -55t-23 -54.5t-55 -22.5t-55 22.5t-23 54.5zM184 0v1366h90v-1366h-90zM283 1597q0 32 22.5 55t54.5 23t55 -23t23 -55t-23 -54.5t-55 -22.5t-54.5 22.5t-22.5 54.5z" />
<glyph unicode="&#x408;" horiz-adv-x="540" d="M-111 -137l64 49q26 -49 70 -82t100 -33q33 0 58.5 10t40.5 29t24.5 38t13.5 46t5 44t1 40v1362h90v-1362q0 -289 -237 -289q-61 0 -111 26t-75 55.5t-44 66.5z" />
<glyph unicode="&#x409;" horiz-adv-x="1888" d="M29 0v82q40 -12 75 -12q81 0 134 53q19 19 33 43t22.5 58.5t13 57t6.5 70.5t2 65v72v877h770v-588h238q41 0 78.5 -2.5t87 -12t90 -25t82 -44.5t69.5 -67t46 -95.5t18 -128.5q0 -63 -15 -120.5t-49 -109.5t-84.5 -90t-125.5 -60.5t-168 -22.5h-357v1284h-589v-795 q0 -75 -2 -118t-10.5 -106t-29.5 -110.5t-55 -84.5q-75 -82 -198 -82q-32 0 -82 12zM1085 82h230q43 0 70 1.5t72.5 9t85 27.5t71.5 52q86 82 86 231q0 180 -141 252q-37 19 -86 28.5t-82 11t-93 1.5h-213v-614z" />
<glyph unicode="&#x40a;" horiz-adv-x="1994" d="M184 0v1366h90v-588h828v588h90v-588h238q41 0 78.5 -2.5t87 -12t90 -25t82 -44.5t69.5 -67t46 -95.5t18 -128.5q0 -80 -25 -150t-76 -128t-139 -91.5t-203 -33.5h-356v696h-828v-696h-90zM1192 82h229q43 0 70 1.5t72.5 9t85 27.5t71.5 52q86 82 86 231q0 180 -141 252 q-37 19 -86 28.5t-81.5 11t-92.5 1.5h-213v-614z" />
<glyph unicode="&#x40b;" horiz-adv-x="1372" d="M29 1284v82h839v-82h-409v-498h348q186 0 278 -45q89 -44 116.5 -114t27.5 -191v-436h-90v436q0 31 -0.5 41.5t-3 41t-9 46.5t-18.5 39.5t-32 40t-48 29.5q-63 31 -250 31h-319v-705h-90v1284h-340z" />
<glyph unicode="&#x40c;" horiz-adv-x="1105" d="M184 0v1366h90v-643l646 643h118l-661 -653l700 -713h-123l-643 651l-37 -35v-616h-90zM451 1477l237 272l103 -51l-275 -258z" />
<glyph unicode="&#x40e;" horiz-adv-x="1126" d="M29 1366h102l473 -885l400 885h94l-625 -1366h-94l174 381zM297 1645l72 38q60 -131 215 -131t215 131l71 -38q-29 -66 -83.5 -107.5t-103.5 -54.5t-99 -13t-99 13t-104 54.5t-84 107.5z" />
<glyph unicode="&#x40f;" horiz-adv-x="1363" d="M184 0v1366h90v-1284h816v1284h90v-1366h-453v-369h-90v369h-453z" />
<glyph unicode="&#x410;" horiz-adv-x="1200" d="M29 0l575 1407l567 -1407h-98l-182 449h-582l-182 -449h-98zM342 530h516l-256 648z" />
<glyph unicode="&#x411;" horiz-adv-x="1093" d="M184 0v1366h658v-82h-568v-506h238q41 0 78.5 -2.5t87 -12t90 -25t82 -44.5t69.5 -67t46 -95.5t18 -128.5q0 -63 -15 -120.5t-49 -109.5t-84.5 -90t-125.5 -60.5t-168 -22.5h-357zM274 82h230q43 0 70 1.5t72.5 9t85 27.5t71.5 52q86 82 86 231q0 180 -141 252 q-38 19 -88.5 28.5t-83 11t-89.5 1.5h-213v-614z" />
<glyph unicode="&#x412;" horiz-adv-x="1093" d="M184 0v1366h299q176 0 276.5 -93t100.5 -249q0 -201 -160 -299q132 -21 207.5 -114.5t75.5 -227.5q0 -177 -117.5 -280t-306.5 -103h-375zM274 82h230q64 0 101 2.5t95 22t101 57.5q88 78 88 209q0 187 -146 254q-90 39 -256 39h-213v-584zM274 748h218q59 0 102 11.5 t84 45.5q90 74 90 209q0 137 -92 213q-73 57 -227 57h-175v-536z" />
<glyph unicode="&#x413;" horiz-adv-x="819" d="M184 0v1366h607v-82h-517v-1284h-90z" />
<glyph unicode="&#x414;" horiz-adv-x="1249" d="M29 82q70 -3 127 49.5t90 134.5q49 123 49 359v741h770v-1284h156v-356h-86v274h-1020v-274h-86v356zM231 82h744v1202h-590v-659q0 -253 -49 -381q-35 -92 -105 -162z" />
<glyph unicode="&#x415;" horiz-adv-x="950" d="M184 0v1366h656v-82h-566v-496h553v-81h-553v-625h566v-82h-656z" />
<glyph unicode="&#x416;" horiz-adv-x="1630" d="M29 0l651 705l-606 661h119l577 -643v643h90v-643l578 643h118l-606 -661l652 -705h-119l-596 643l-27 -27v-616h-90v616l-27 27l-596 -643h-118z" />
<glyph unicode="&#x417;" horiz-adv-x="1134" d="M111 266l86 41q35 -83 103 -141.5t138.5 -82.5t139.5 -24q59 0 126 20t109 52q117 87 117 260q0 142 -97 222.5t-268 80.5h-123v82h123q108 0 189.5 75.5t81.5 199.5q0 107 -64 176q-71 76 -199 76q-186 0 -294 -168l-66 55q118 194 371 194q154 0 247 -88 q99 -92 99 -245q0 -104 -49.5 -180t-130.5 -119q131 -33 202.5 -131t71.5 -230q0 -113 -45 -196.5t-111 -131.5q-51 -37 -122.5 -58t-108.5 -24.5t-66 -3.5q-170 0 -286.5 82.5t-173.5 206.5z" />
<glyph unicode="&#x418;" horiz-adv-x="1433" d="M184 -35v1401h90v-1159l975 1173v-1380h-90v1139z" />
<glyph unicode="&#x419;" horiz-adv-x="1433" d="M184 -35v1401h90v-1159l975 1173v-1380h-90v1139zM430 1645l72 38q60 -131 215 -131t215 131l72 -38q-29 -66 -84 -107.5t-104 -54.5t-99 -13t-99 13t-104 54.5t-84 107.5z" />
<glyph unicode="&#x41a;" horiz-adv-x="1105" d="M184 0v1366h90v-643l646 643h118l-661 -653l700 -713h-123l-643 651l-37 -35v-616h-90z" />
<glyph unicode="&#x41b;" horiz-adv-x="1269" d="M29 0v82q40 -12 75 -12q81 0 134 53q19 19 33 43t22.5 58.5t13 57t6.5 70.5t2 65v72v877h770v-1366h-90v1284h-589v-795q0 -75 -2 -118t-10.5 -106t-29.5 -110.5t-55 -84.5q-75 -82 -198 -82q-32 0 -82 12z" />
<glyph unicode="&#x41c;" horiz-adv-x="1835" d="M170 0l156 1413l592 -1263l591 1263l156 -1413h-90l-121 1098l-536 -1147l-537 1147l-121 -1098h-90z" />
<glyph unicode="&#x41d;" horiz-adv-x="1376" d="M184 0v1366h90v-580h828v580h90v-1366h-90v705h-828v-705h-90z" />
<glyph unicode="&#x41e;" horiz-adv-x="1638" d="M111 680q0 145 55 275.5t149 224.5t225.5 149t278.5 55q196 0 359 -93.5t256.5 -255t93.5 -355.5q0 -145 -55 -275t-149.5 -224t-226 -149t-278.5 -55t-278.5 55t-225.5 149t-149 224t-55 275zM205 680q0 -172 79.5 -314t220.5 -224.5t314 -82.5q130 0 244.5 48.5 t195.5 131.5t128 197.5t47 243.5q0 173 -79.5 315.5t-221 225t-314.5 82.5t-314 -82.5t-220.5 -225t-79.5 -315.5z" />
<glyph unicode="&#x41f;" horiz-adv-x="1376" d="M184 0v1366h1008v-1366h-90v1284h-828v-1284h-90z" />
<glyph unicode="&#x420;" horiz-adv-x="913" d="M184 0v1366h265q174 0 286.5 -93.5t112.5 -262.5q0 -168 -109 -264.5t-288 -96.5h-177v-649h-90zM274 731h181q135 0 217 74.5t82 202.5t-83 202t-231 74h-166v-553z" />
<glyph unicode="&#x421;" horiz-adv-x="1388" d="M111 680q0 193 94.5 355t257 255.5t356.5 93.5q74 0 144 -15.5t118 -35.5t93 -48t65.5 -45t38.5 -34v-119q-88 103 -208.5 159.5t-252.5 56.5q-129 0 -243 -49.5t-194.5 -134t-127.5 -200t-47 -243.5q0 -117 37.5 -219.5t99.5 -174t142 -123t165.5 -76t169.5 -24.5 q115 0 238.5 50.5t220.5 156.5v-119q-99 -87 -217.5 -128.5t-237.5 -41.5q-200 0 -364.5 96t-256 257t-91.5 350z" />
<glyph unicode="&#x422;" horiz-adv-x="856" d="M29 1284v82h798v-82h-354v-1284h-90v1284h-354z" />
<glyph unicode="&#x423;" horiz-adv-x="1126" d="M29 1366h102l473 -885l400 885h94l-625 -1366h-94l174 381z" />
<glyph unicode="&#x424;" horiz-adv-x="1679" d="M111 725q0 72 15.5 140.5t59 141.5t111 127t181 88.5t259.5 34.5h58v164h90v-164h57q106 0 194.5 -18t152 -48.5t113.5 -73.5t80.5 -89.5t50.5 -100.5t28 -103t8 -99t-8 -99t-28 -103t-50.5 -100.5t-80.5 -89.5t-113.5 -73.5t-152 -48.5t-194.5 -18h-57v-193h-90v193h-58 q-146 0 -259.5 34.5t-181 88.5t-111 127t-59 141.5t-15.5 140.5zM205 725q0 -64 14 -123t51 -120.5t94.5 -106t152 -73t216.5 -28.5h62v902h-62q-122 0 -216.5 -28.5t-152 -73t-94.5 -106t-51 -120.5t-14 -123zM885 274h61q102 0 185.5 19.5t139.5 54t97 78t64 95.5t33 102 t10 102t-10 102t-33 102t-64 95.5t-97 78t-139.5 54t-185.5 19.5h-61v-902z" />
<glyph unicode="&#x425;" horiz-adv-x="962" d="M47 0l375 696l-359 670h99l309 -584l311 584h99l-357 -670l375 -696h-98l-330 614l-326 -614h-98z" />
<glyph unicode="&#x426;" horiz-adv-x="1363" d="M184 0v1366h90v-1284h816v1284h90v-1284h155v-356h-86v274h-1065z" />
<glyph unicode="&#x427;" horiz-adv-x="1187" d="M143 950v416h90v-416q0 -31 0.5 -41.5t3 -40.5t9 -46.5t18.5 -39.5t32 -39.5t48 -29.5q63 -31 250 -31q141 0 319 14v670h91v-1366h-91v614q-229 -14 -348 -14q-186 0 -278 45q-89 44 -116.5 114t-27.5 191z" />
<glyph unicode="&#x428;" horiz-adv-x="1884" d="M184 0v1366h90v-1284h623v1284h90v-1284h623v1284h90v-1366h-1516z" />
<glyph unicode="&#x429;" horiz-adv-x="1884" d="M184 0v1366h90v-1284h623v1284h90v-1284h623v1284h90v-1284h155v-356h-86v274h-1585z" />
<glyph unicode="&#x42a;" horiz-adv-x="1249" d="M29 1284v82h417v-588h238q41 0 78.5 -2.5t87 -12t90 -25t82 -44.5t69.5 -67t46 -95.5t18 -128.5q0 -63 -15 -120.5t-49 -109.5t-84.5 -90t-125.5 -60.5t-168 -22.5h-357v1284h-327zM446 82h230q43 0 70 1.5t72.5 9t85 27.5t71.5 52q86 82 86 231q0 180 -141 252 q-37 19 -86 28.5t-82 11t-93 1.5h-213v-614z" />
<glyph unicode="&#x42b;" horiz-adv-x="1413" d="M184 0v1366h90v-588h238q41 0 78.5 -2.5t87 -12t90 -25t82 -44.5t69.5 -67t46 -95.5t18 -128.5q0 -63 -15 -120.5t-49 -109.5t-84.5 -90t-125.5 -60.5t-168 -22.5h-357zM274 82h230q43 0 70 1.5t72.5 9t85 27.5t71.5 52q86 82 86 231q0 180 -141 252q-37 19 -86 28.5 t-82 11t-93 1.5h-213v-614zM1139 0v1366h90v-1366h-90z" />
<glyph unicode="&#x42c;" horiz-adv-x="1077" d="M184 0v1366h90v-588h238q41 0 78.5 -2.5t87 -12t90 -25t82 -44.5t69.5 -67t46 -95.5t18 -128.5q0 -63 -15 -120.5t-49 -109.5t-84.5 -90t-125.5 -60.5t-168 -22.5h-357zM274 82h230q43 0 70 1.5t72.5 9t85 27.5t71.5 52q86 82 86 231q0 180 -141 252q-37 19 -86 28.5 t-82 11t-93 1.5h-213v-614z" />
<glyph unicode="&#x42d;" horiz-adv-x="1388" d="M111 147v119q97 -106 220 -156.5t238 -50.5q87 0 174 25.5t165 77.5t138.5 123t97.5 169.5t40 209.5h-910v81h906q-11 119 -64.5 223.5t-135 177.5t-188 115t-221.5 42q-132 0 -252 -56.5t-208 -159.5v119q24 23 54.5 45.5t89.5 56.5t141.5 55t172.5 21q145 0 276 -55 t226 -149t151 -224.5t56 -275.5q0 -141 -54.5 -270t-148 -224.5t-227 -152t-283.5 -56.5q-119 0 -237 41.5t-217 128.5z" />
<glyph unicode="&#x42e;" horiz-adv-x="1966" d="M184 0v1366h90v-604h209q31 270 225.5 446t458.5 176q143 0 271 -55t219.5 -149t144.5 -224.5t53 -275.5t-53.5 -275t-145 -224t-219 -149t-270.5 -55q-144 0 -272 55.5t-218.5 150.5t-143.5 224.5t-54 272.5h-205v-680h-90zM573 680q0 -172 76.5 -314t213 -224.5 t304.5 -82.5t304.5 82.5t213 224.5t76.5 314t-76.5 314.5t-213 225.5t-304.5 83t-304.5 -83t-213 -225.5t-76.5 -314.5z" />
<glyph unicode="&#x42f;" horiz-adv-x="962" d="M70 0l413 612q-74 3 -153 31q-20 7 -40 17.5t-55 38.5t-60 63.5t-44.5 95.5t-19.5 131q0 64 17 119.5t45 94.5t56.5 65.5t59.5 44.5q90 53 256 53h233v-1366h-90v612h-102l-410 -612h-106zM205 989q0 -143 90 -223q80 -72 237 -72h156v590h-143q-120 0 -187 -33 q-72 -34 -112.5 -103.5t-40.5 -158.5z" />
<glyph unicode="&#x430;" horiz-adv-x="1056" d="M94 418q0 194 112.5 315t295.5 121q209 0 325 -164v146h82v-836h-82v150q-59 -90 -146 -131.5t-179 -41.5q-82 0 -156 31t-130 86.5t-89 139.5t-33 184zM180 424q0 -96 37 -179t113.5 -136.5t177.5 -53.5q76 0 138.5 30.5t102 82t61 117.5t21.5 139q0 89 -30 159 t-79 110.5t-104.5 61.5t-111.5 21q-133 0 -229.5 -95t-96.5 -257z" />
<glyph unicode="&#x431;" horiz-adv-x="1064" d="M94 528q0 503 262 674q24 16 54 29.5t49.5 21.5t60 18t51.5 12.5t59 12t50 9.5q88 19 128 44.5t56 63.5h103q-15 -34 -35.5 -62t-48 -47.5t-50.5 -33t-58.5 -24.5t-55 -16t-55.5 -13q-59 -12 -95 -20.5t-96 -33.5t-102 -59q-94 -76 -141 -205t-52 -262h4 q47 109 148.5 163t218.5 54q190 0 306 -121t116 -315q0 -134 -59 -235t-158.5 -153.5t-223.5 -52.5q-179 0 -292 105q-48 45 -79.5 105t-44 126.5t-16.5 112.5t-4 102zM188 418q0 -64 22 -130t58 -112q93 -121 262 -121q92 0 163 33t111.5 87t60.5 116t20 127 q0 54 -13.5 105.5t-42 97.5t-67.5 80.5t-94 54.5t-119 20q-86 0 -156.5 -31.5t-114 -83t-67 -114.5t-23.5 -129z" />
<glyph unicode="&#x432;" horiz-adv-x="847" d="M147 0v836h273q115 0 178 -50q74 -60 74 -159q0 -115 -92 -174q56 -8 102 -47q72 -64 72 -168q0 -117 -84 -181q-74 -57 -205 -57h-318zM229 78h236q93 0 143 37q60 44 60 125q0 73 -56 116q-48 37 -147 37h-236v-315zM229 471h191q76 0 119 35q51 40 51 110 q0 69 -51 109q-42 33 -119 33h-191v-287z" />
<glyph unicode="&#x433;" horiz-adv-x="614" d="M147 0v836h451v-78h-369v-758h-82z" />
<glyph unicode="&#x434;" horiz-adv-x="901" d="M16 78q54 3 93 34.5t61 75.5q35 71 35 226v422h549v-758h123v-303h-78v225h-705v-225h-78v303zM180 78h492v680h-385v-369q0 -220 -107 -311z" />
<glyph unicode="&#x435;" horiz-adv-x="989" d="M94 414q0 105 34.5 190.5t92 139t129.5 82t150 28.5q172 0 286.5 -125t108.5 -321h-715q-7 -154 93.5 -253.5t238.5 -99.5q98 0 174 52t117 139l69 -41q-21 -40 -50 -76t-72.5 -72.5t-107 -58t-136.5 -21.5q-190 0 -301 124t-111 313zM186 485h623q-15 126 -100.5 208.5 t-208.5 82.5q-124 0 -210 -83t-104 -208z" />
<glyph unicode="&#x436;" horiz-adv-x="1146" d="M16 0l422 434l-389 402h107l376 -398v398h82v-398l377 398h107l-389 -402l421 -434h-110l-365 381l-41 -41v-340h-82v340l-40 41l-365 -381h-111z" />
<glyph unicode="&#x437;" horiz-adv-x="819" d="M94 162l74 47q33 -71 88 -107q64 -47 158 -47q104 0 159 47q66 54 66 144q0 80 -57 123q-50 37 -154 37h-86v77h64q78 0 124 35q52 41 52 107q0 65 -43 108q-48 43 -129 43q-130 0 -195 -117l-68 48q87 147 265 147q120 0 184 -59q68 -60 68 -162q0 -122 -97 -174 q56 -13 99 -56q59 -59 59 -159q0 -129 -98 -205q-83 -62 -213 -62q-126 0 -215 62q-73 57 -105 123z" />
<glyph unicode="&#x438;" horiz-adv-x="970" d="M147 -51v887h82v-670l594 717v-883h-82v666z" />
<glyph unicode="&#x439;" horiz-adv-x="970" d="M147 -51v887h82v-670l594 717v-883h-82v666zM242 1174l69 34q16 -64 68.5 -106.5t128.5 -42.5t128.5 42.5t68.5 106.5l69 -34q-10 -32 -27 -61.5t-47 -61.5t-79.5 -51t-112.5 -19t-112.5 19t-79.5 51t-47 61.5t-27 61.5z" />
<glyph unicode="&#x43a;" horiz-adv-x="811" d="M147 0v836h82v-398l422 398h111l-426 -398l459 -438h-119l-402 383l-45 -43v-340h-82z" />
<glyph unicode="&#x43b;" horiz-adv-x="880" d="M16 0v78q20 -4 31 -4q72 0 109 55q28 43 28 145v562h549v-836h-82v758h-385v-484q0 -136 -49 -202q-55 -76 -160 -76q-13 0 -41 4z" />
<glyph unicode="&#x43c;" horiz-adv-x="1159" d="M49 0l197 887l334 -754l333 754l197 -887h-86l-135 653l-309 -704l-310 704l-135 -653h-86z" />
<glyph unicode="&#x43d;" horiz-adv-x="929" d="M147 0v836h82v-369h471v369h82v-836h-82v389h-471v-389h-82z" />
<glyph unicode="&#x43e;" horiz-adv-x="1064" d="M94 416q0 186 126 312t312 126t312.5 -126t126.5 -312t-126.5 -312.5t-312.5 -126.5t-312 126.5t-126 312.5zM180 416q0 -153 101 -257t251 -104t251.5 104t101.5 257t-101.5 256.5t-251.5 103.5t-251 -103.5t-101 -256.5z" />
<glyph unicode="&#x43f;" horiz-adv-x="917" d="M147 0v836h623v-836h-82v758h-459v-758h-82z" />
<glyph unicode="&#x440;" horiz-adv-x="1056" d="M147 -489v1325h82v-146q120 164 328 164q185 0 295.5 -122t110.5 -308q0 -92 -28.5 -173.5t-80.5 -142t-130 -96t-171 -35.5q-72 0 -132.5 20t-99.5 52.5t-58.5 55t-33.5 45.5v-639h-82zM225 428q0 -163 86.5 -268t239.5 -105t239.5 104.5t86.5 264.5q0 165 -94 258.5 t-230 93.5q-63 0 -121 -22.5t-104.5 -64.5t-74.5 -109.5t-28 -151.5z" />
<glyph unicode="&#x441;" horiz-adv-x="905" d="M94 412q0 191 118.5 316.5t315.5 125.5q162 0 289 -106v-109q-120 137 -289 137q-152 0 -250 -103.5t-98 -258.5q0 -86 30.5 -156.5t81 -113.5t110.5 -66t122 -23q166 0 303 150v-111q-131 -117 -305 -117q-188 0 -308 124t-120 311z" />
<glyph unicode="&#x442;" horiz-adv-x="696" d="M16 758v78h664v-78h-291v-758h-82v758h-291z" />
<glyph unicode="&#x443;" horiz-adv-x="876" d="M16 836h95l350 -744l305 744h94l-557 -1325h-94l205 475z" />
<glyph unicode="&#x444;" horiz-adv-x="1228" d="M94 418q0 204 142 325q128 105 337 105v518h82v-518q210 0 338 -105q142 -121 142 -325q0 -203 -142 -324q-129 -108 -338 -108v-475h-82v475q-208 0 -337 108q-142 121 -142 324zM180 418q0 -173 113 -266q50 -41 127.5 -65t152.5 -24v707q-171 3 -280 -86 q-113 -94 -113 -266zM655 63q75 0 153 24t128 65q113 93 113 266q0 172 -113 266q-109 89 -281 86v-707z" />
<glyph unicode="&#x445;" horiz-adv-x="819" d="M16 0l338 438l-309 398h100l265 -344l260 344h100l-303 -398l336 -438h-101l-292 385l-293 -385h-101z" />
<glyph unicode="&#x446;" horiz-adv-x="909" d="M147 0v836h82v-758h451v758h82v-758h123v-303h-78v225h-660z" />
<glyph unicode="&#x447;" horiz-adv-x="843" d="M123 584v252h82v-252q0 -115 55 -154q40 -27 125 -27q90 0 229 21v412h82v-836h-82v346q-136 -20 -219 -20q-133 0 -196 45q-27 19 -43.5 45.5t-23 60t-8 53.5t-1.5 54z" />
<glyph unicode="&#x448;" horiz-adv-x="1318" d="M147 0v836h82v-758h389v758h82v-758h390v758h81v-836h-1024z" />
<glyph unicode="&#x449;" horiz-adv-x="1318" d="M147 0v836h82v-758h389v758h82v-758h390v758h81v-758h123v-303h-77v225h-1070z" />
<glyph unicode="&#x44a;" horiz-adv-x="851" d="M16 758v78h287v-349h199q146 0 213 -77q59 -65 59 -166q0 -113 -74 -181q-67 -63 -200 -63h-279v758h-205zM303 78h197q85 0 131 39q57 47 57 127q0 83 -59 129q-48 37 -133 37h-193v-332z" />
<glyph unicode="&#x44b;" horiz-adv-x="1024" d="M147 0v836h82v-349h199q146 0 213 -77q59 -65 59 -166q0 -114 -73 -181q-67 -63 -201 -63h-279zM229 78h197q85 0 131 39q57 47 57 127q0 83 -59 129q-48 37 -133 37h-193v-332zM795 0v836h82v-836h-82z" />
<glyph unicode="&#x44c;" horiz-adv-x="778" d="M147 0v836h82v-349h199q146 0 213 -77q59 -65 59 -166q0 -114 -73 -181q-67 -63 -201 -63h-279zM229 78h197q85 0 131 39q57 47 57 127q0 83 -59 129q-48 37 -133 37h-193v-332z" />
<glyph unicode="&#x44d;" horiz-adv-x="843" d="M78 20v86q91 -51 225 -51q169 0 270 109q86 90 91 225h-490v78h490q-16 150 -138 242q-94 67 -229 67q-131 0 -211 -43v82q102 39 211 39q195 0 313 -104q140 -119 140 -330q0 -203 -125 -324q-124 -119 -322 -119q-137 0 -225 43z" />
<glyph unicode="&#x44e;" horiz-adv-x="1310" d="M147 0v836h82v-369h144q19 168 136.5 277.5t285.5 109.5q180 0 301 -126t121 -312t-121 -312.5t-301 -126.5q-167 0 -290 113.5t-132 298.5h-144v-389h-82zM459 416q0 -153 96 -257t240 -104t239.5 104t95.5 257t-95.5 256.5t-239.5 103.5t-240 -103.5t-96 -256.5z" />
<glyph unicode="&#x44f;" horiz-adv-x="790" d="M57 0l267 365q-97 3 -164 61q-70 63 -70 166q0 121 76 184q69 60 199 60h278v-836h-82v360h-143l-262 -360h-99zM176 594q0 -80 53 -119q48 -37 136 -37h196v320h-196q-87 0 -134 -37q-55 -47 -55 -127z" />
<glyph unicode="&#x451;" horiz-adv-x="989" d="M94 414q0 105 34.5 190.5t92 139t129.5 82t150 28.5q172 0 286.5 -125t108.5 -321h-715q-7 -154 93.5 -253.5t238.5 -99.5q98 0 174 52t117 139l69 -41q-21 -40 -50 -76t-72.5 -72.5t-107 -58t-136.5 -21.5q-190 0 -301 124t-111 313zM186 485h623q-15 126 -100.5 208.5 t-208.5 82.5q-124 0 -210 -83t-104 -208zM260 1077q0 31 21.5 52.5t52.5 21.5t52.5 -21.5t21.5 -52.5t-21.5 -52t-52.5 -21t-52.5 21t-21.5 52zM600 1077q0 31 21.5 52.5t52.5 21.5t52.5 -21.5t21.5 -52.5t-21.5 -52t-52.5 -21t-52.5 21t-21.5 52z" />
<glyph unicode="&#x452;" horiz-adv-x="905" d="M0 1151v78h147v264h82v-264h369v-78h-369v-446q83 149 256 149q52 0 95.5 -13.5t71 -35t41.5 -37t24 -31.5q41 -65 41 -211v-731q0 -68 -13.5 -120t-35 -82.5t-51.5 -49.5t-58.5 -25.5t-60.5 -6.5q-30 0 -72 12v76q27 -11 63 -11q31 0 54 8.5t45.5 30.5t34.5 69t12 116 v714q0 118 -33 168q-48 82 -164 82q-139 0 -205 -117q-45 -80 -45 -225v-434h-82v1151h-147z" />
<glyph unicode="&#x453;" horiz-adv-x="614" d="M147 0v836h451v-78h-369v-758h-82zM293 989l188 281l88 -51l-215 -263z" />
<glyph unicode="&#x454;" horiz-adv-x="903" d="M94 412q0 124 51.5 224t150.5 159t230 59q162 0 289 -106v-109q-120 137 -289 137q-138 0 -236 -88.5t-110 -220.5h488v-78h-488q4 -147 106 -240.5t236 -93.5q166 0 303 150v-111q-131 -117 -305 -117q-187 0 -306.5 124t-119.5 311z" />
<glyph unicode="&#x455;" horiz-adv-x="700" d="M78 199l80 24q21 -80 79 -124t130 -44q80 0 133 52t53 133q0 65 -37.5 100t-122.5 70q-10 4 -34.5 14.5t-33.5 14.5t-29 13t-29 14t-23.5 13.5t-23.5 15.5t-18.5 16t-17.5 19q-37 51 -37 109q0 94 64 154.5t160 60.5q75 0 132.5 -34.5t86.5 -100.5l-70 -37 q-21 47 -59.5 70.5t-85.5 23.5q-66 0 -104 -41t-38 -92q0 -29 10.5 -50.5t32.5 -37.5t45 -27t58 -25q12 -5 18 -7q8 -3 33.5 -13t37 -14.5t33.5 -15t35.5 -20t30 -24t29.5 -30.5q43 -53 43 -135q0 -68 -24 -121t-64 -84t-87 -46.5t-97 -15.5q-106 0 -184.5 59.5 t-104.5 162.5z" />
<glyph unicode="&#x456;" horiz-adv-x="376" d="M115 1114q0 33 21 54.5t52 21.5t52.5 -21.5t21.5 -54.5t-21.5 -54.5t-52.5 -21.5t-52 21.5t-21 54.5zM147 0v836h82v-836h-82z" />
<glyph unicode="&#x457;" horiz-adv-x="376" d="M0 1077q0 31 21.5 52.5t52.5 21.5t52 -21.5t21 -52.5t-21 -52t-52 -21t-52.5 21t-21.5 52zM145 0v836h82v-836h-82zM229 1077q0 31 21.5 52.5t52.5 21.5t52.5 -21.5t21.5 -52.5t-21.5 -52t-52.5 -21t-52.5 21t-21.5 52z" />
<glyph unicode="&#x458;" horiz-adv-x="376" d="M115 1114q0 33 21 54.5t52 21.5t52.5 -21.5t21.5 -54.5t-21.5 -54.5t-52.5 -21.5t-52 21.5t-21 54.5zM147 -489v1325h82v-1325h-82z" />
<glyph unicode="&#x459;" horiz-adv-x="1282" d="M16 0v78q20 -4 31 -4q72 0 109 55q28 43 28 145v562h549v-349h199q146 0 213 -77q59 -65 59 -166q0 -113 -74 -181q-67 -63 -200 -63h-279v758h-385v-484q0 -136 -49 -202q-55 -76 -160 -76q-13 0 -41 4zM733 78h197q85 0 131 39q57 47 57 127q0 83 -59 129 q-48 37 -133 37h-193v-332z" />
<glyph unicode="&#x45a;" horiz-adv-x="1331" d="M147 0v836h82v-349h471v349h82v-349h199q146 0 213 -77q59 -65 59 -166q0 -114 -73 -181q-67 -63 -201 -63h-279v410h-471v-410h-82zM782 78h197q85 0 131 39q57 47 57 127q0 83 -59 129q-48 37 -133 37h-193v-332z" />
<glyph unicode="&#x45b;" horiz-adv-x="905" d="M0 1151v78h147v264h82v-264h369v-78h-369v-446q83 149 256 149q52 0 95.5 -13.5t71 -35t41.5 -37t24 -31.5q41 -65 41 -211v-526h-82v526q0 118 -33 168q-48 82 -164 82q-139 0 -205 -117q-45 -80 -45 -225v-434h-82v1151h-147z" />
<glyph unicode="&#x45c;" horiz-adv-x="811" d="M147 0v836h82v-398l422 398h111l-426 -398l459 -438h-119l-402 383l-45 -43v-340h-82zM330 989l188 281l88 -51l-215 -263z" />
<glyph unicode="&#x45e;" horiz-adv-x="876" d="M16 836h95l350 -744l305 744h94l-557 -1325h-94l205 475zM184 1174l70 34q16 -64 68.5 -106.5t128.5 -42.5t128 42.5t68 106.5l70 -34q-10 -32 -27 -61.5t-47 -61.5t-79.5 -51t-112.5 -19t-112.5 19t-80 51t-47.5 61.5t-27 61.5z" />
<glyph unicode="&#x45f;" horiz-adv-x="909" d="M147 0v836h82v-758h451v758h82v-836h-266v-266h-82v266h-267z" />
<glyph unicode="&#x490;" horiz-adv-x="819" d="M184 0v1366h521v272h86v-354h-517v-1284h-90z" />
<glyph unicode="&#x491;" horiz-adv-x="614" d="M147 0v836h373v225h78v-303h-369v-758h-82z" />
<glyph unicode="&#x2000;" horiz-adv-x="874" />
<glyph unicode="&#x2001;" horiz-adv-x="1749" />
<glyph unicode="&#x2002;" horiz-adv-x="874" />
<glyph unicode="&#x2003;" horiz-adv-x="1749" />
<glyph unicode="&#x2004;" horiz-adv-x="583" />
<glyph unicode="&#x2005;" horiz-adv-x="437" />
<glyph unicode="&#x2006;" horiz-adv-x="291" />
<glyph unicode="&#x2007;" horiz-adv-x="291" />
<glyph unicode="&#x2008;" horiz-adv-x="218" />
<glyph unicode="&#x2009;" horiz-adv-x="349" />
<glyph unicode="&#x200a;" horiz-adv-x="97" />
<glyph unicode="&#x2010;" horiz-adv-x="573" d="M82 377v94h410v-94h-410z" />
<glyph unicode="&#x2011;" horiz-adv-x="573" d="M82 377v94h410v-94h-410z" />
<glyph unicode="&#x2012;" horiz-adv-x="573" d="M82 377v94h410v-94h-410z" />
<glyph unicode="&#x2013;" horiz-adv-x="1024" d="M102 385v78h820v-78h-820z" />
<glyph unicode="&#x2014;" horiz-adv-x="1433" d="M102 385v78h1229v-78h-1229z" />
<glyph unicode="&#x2018;" horiz-adv-x="466" d="M131 1034l152 410l53 -21l-123 -413z" />
<glyph unicode="&#x2019;" horiz-adv-x="520" d="M131 1030l123 414l82 -25l-152 -409z" />
<glyph unicode="&#x201a;" horiz-adv-x="520" d="M131 -281l123 414l82 -24l-152 -410z" />
<glyph unicode="&#x201c;" horiz-adv-x="704" d="M131 1034l152 410l53 -21l-123 -413zM369 1034l151 410l53 -21l-122 -413z" />
<glyph unicode="&#x201d;" horiz-adv-x="757" d="M131 1030l123 414l82 -25l-152 -409zM369 1030l123 414l81 -25l-151 -409z" />
<glyph unicode="&#x201e;" horiz-adv-x="757" d="M131 -281l123 414l82 -24l-152 -410zM369 -281l123 414l81 -24l-151 -410z" />
<glyph unicode="&#x2022;" horiz-adv-x="1368" d="M397 696q0 118 84.5 202.5t202.5 84.5t202.5 -84.5t84.5 -202.5t-84 -202t-203 -84t-203 84t-84 202z" />
<glyph unicode="&#x2026;" horiz-adv-x="1241" d="M131 61q0 32 22 54t54 22t54 -22t22 -54t-22 -53.5t-54 -21.5t-54 21.5t-22 53.5zM545 61q0 32 22 54t54 22t53.5 -22t21.5 -54t-21.5 -53.5t-53.5 -21.5t-54 21.5t-22 53.5zM958 61q0 32 22 54t54 22t54 -22t22 -54t-22 -53.5t-54 -21.5t-54 21.5t-22 53.5z" />
<glyph unicode="&#x202f;" horiz-adv-x="349" />
<glyph unicode="&#x2039;" horiz-adv-x="495" d="M66 424l266 307l53 -49l-221 -258l221 -258l-53 -49z" />
<glyph unicode="&#x203a;" horiz-adv-x="495" d="M111 166l221 258l-221 258l53 49l266 -307l-266 -307z" />
<glyph unicode="&#x205f;" horiz-adv-x="437" />
<glyph unicode="&#x20ac;" d="M63 524l27 76h103q-5 45 -5 84q0 15 1 44t1 40h-127l27 74h109q11 93 34 172t63.5 148.5t96 117.5t134 76t173.5 28q109 0 195 -30t137 -76v-94q-123 119 -323 119q-97 0 -174.5 -37t-127.5 -102t-79 -146t-39 -176h641l-27 -74h-622q-5 -57 -5 -86q0 -32 5 -82h561 l-27 -76h-524q25 -222 133 -343.5t285 -121.5q188 0 323 121v-98q-48 -43 -135 -72.5t-197 -29.5q-215 0 -342 135t-159 409h-136z" />
<glyph unicode="&#x2122;" horiz-adv-x="1474" d="M0 1292v74h463v-74h-191v-704h-82v704h-190zM543 588l92 839l334 -712l336 712l92 -839h-78l-64 567l-286 -612l-287 612l-61 -567h-78z" />
<glyph unicode="&#x25fc;" horiz-adv-x="839" d="M0 0v840h840v-840h-840z" />
</font>
</defs>
</svg>
