<?xml version="1.0" standalone="no"?>
<!DOCTYPE svg PUBLIC "-//W3C//DTD SVG 1.1//EN" "http://www.w3.org/Graphics/SVG/1.1/DTD/svg11.dtd" >
<svg xmlns="http://www.w3.org/2000/svg" xmlns:xlink="http://www.w3.org/1999/xlink" version="1.1">
<metadata></metadata>
<defs>
<font id="futuramediumcregular" horiz-adv-x="1163" >
<font-face units-per-em="2048" ascent="1536" descent="-512" />
<missing-glyph horiz-adv-x="477" />
<glyph horiz-adv-x="0" />
<glyph horiz-adv-x="682" />
<glyph unicode=" "  horiz-adv-x="477" />
<glyph unicode="&#x09;" horiz-adv-x="477" />
<glyph unicode="&#xa0;" horiz-adv-x="477" />
<glyph unicode="!" horiz-adv-x="516" d="M135 98q0 51 36 87t87 36t87 -36t36 -87t-36 -87t-87 -36t-87 36t-36 87zM158 305v1061h200v-1061h-200z" />
<glyph unicode="&#x22;" horiz-adv-x="749" d="M98 1366h221l-36 -549h-148zM430 1366h221l-37 -549h-147z" />
<glyph unicode="#" horiz-adv-x="1228" d="M41 401l29 181h221l37 229h-222l29 180h221l60 375h200l-59 -375h234l59 375h201l-60 -375h221l-28 -180h-221l-37 -229h221l-29 -181h-221l-63 -401h-201l63 401h-233l-64 -401h-200l63 401h-221zM492 582h233l37 229h-234z" />
<glyph unicode="$" d="M135 377l207 45q0 -100 57 -174q65 -82 179 -82q97 0 161 64t64 165q0 49 -17 89t-49 67.5t-61.5 44t-69.5 33.5l-131 55q-278 116 -278 346q0 136 91 235.5t228 118.5v175h152v-173q122 -20 202 -88q65 -58 105 -137l-168 -98q-19 48 -62 86q-60 49 -147 49 q-91 0 -141.5 -47t-50.5 -117q0 -107 147 -166l137 -55q177 -72 249.5 -172.5t72.5 -228.5q0 -167 -95.5 -284.5t-248.5 -145.5v-187h-152v180q-156 13 -266 136q-102 113 -115 266z" />
<glyph unicode="%" horiz-adv-x="1658" d="M68 1057q0 132 97 226.5t232 94.5t232.5 -94.5t97.5 -226.5q0 -131 -97 -226.5t-233 -95.5t-232.5 95.5t-96.5 226.5zM227 1057q0 -67 45.5 -120.5t124.5 -53.5t124.5 53.5t45.5 120.5t-45.5 120.5t-124.5 53.5t-124.5 -53.5t-45.5 -120.5zM391 37l780 1352l97 -56 l-781 -1356zM932 307q0 132 97.5 227t232.5 95t232 -95t97 -227q0 -131 -96.5 -226t-232.5 -95t-233 95t-97 226zM1092 307q0 -67 45.5 -120.5t124.5 -53.5t124.5 53.5t45.5 120.5t-45.5 120.5t-124.5 53.5t-124.5 -53.5t-45.5 -120.5z" />
<glyph unicode="&#x26;" horiz-adv-x="1323" d="M111 365q0 65 15 119t44.5 96.5t61 73t75.5 63.5q53 39 109 76q-135 135 -135 282q0 60 19.5 115.5t57 101t101.5 72.5t145 27q78 0 142 -25.5t104 -68t61 -94.5t21 -107q0 -99 -60 -178q-54 -70 -170 -158l242 -295l156 176l133 -139l-162 -187l252 -315h-254l-135 168 q-50 -53 -115 -100q-68 -48 -137.5 -71.5t-161.5 -23.5q-188 0 -298.5 111t-110.5 281zM315 356q0 -86 59.5 -146t153.5 -60q75 0 154 53q54 39 127 112l-270 328q-96 -53 -150 -113q-74 -79 -74 -174zM473 1098q0 -64 47 -119l62 -74l75 56q82 59 82 135q0 50 -34 86.5 t-101 36.5q-62 0 -96.5 -33.5t-34.5 -87.5z" />
<glyph unicode="'" horiz-adv-x="417" d="M98 1366h221l-36 -549h-148z" />
<glyph unicode="(" horiz-adv-x="663" d="M164 565q0 310 65 582q48 198 127 362l185 -71q-75 -167 -113 -326q-27 -110 -43 -260.5t-16 -286.5t16 -286.5t43 -260.5q38 -157 113 -325l-185 -72q-78 163 -127 363q-65 272 -65 581z" />
<glyph unicode=")" horiz-adv-x="663" d="M123 -307q75 168 113 325q27 110 43 260.5t16 286.5t-16 286.5t-43 260.5q-38 159 -113 326l184 71q79 -164 127 -362q66 -276 66 -582q0 -305 -66 -581q-49 -200 -127 -363z" />
<glyph unicode="*" d="M227 1174l56 167l223 -86l-14 238h180l-15 -238l224 86l55 -167l-231 -62l151 -186l-143 -103l-131 201l-131 -201l-144 103l152 186z" />
<glyph unicode="+" horiz-adv-x="1024" d="M68 596v184h348v348h192v-348h348v-184h-348v-348h-192v348h-348z" />
<glyph unicode="," horiz-adv-x="655" d="M20 -264l209 520l181 -70l-254 -505z" />
<glyph unicode="-" horiz-adv-x="655" d="M82 332v209h491v-209h-491z" />
<glyph unicode="." horiz-adv-x="516" d="M135 98q0 51 36 87t87 36t87 -36t36 -87t-36 -87t-87 -36t-87 36t-36 87z" />
<glyph unicode="/" horiz-adv-x="1105" d="M0 -301l782 1810l164 -73l-782 -1811z" />
<glyph unicode="0" d="M98 682q0 359 174 559q130 148 310 148q179 0 309 -148q174 -200 174 -559q0 -357 -174 -557q-130 -148 -309 -148q-180 0 -310 148q-174 200 -174 557zM303 684q0 -268 94 -410q73 -112 185 -112q111 0 184 112q94 142 94 410t-94 408q-73 112 -184 112 q-112 0 -185 -112q-94 -140 -94 -408z" />
<glyph unicode="1" d="M274 1174l115 192h332v-1366h-209v1174h-238z" />
<glyph unicode="2" d="M70 0l473 573q108 132 164 213q71 104 71 197q0 92 -59.5 156.5t-167.5 64.5q-109 0 -172.5 -72t-69.5 -176h-200q4 93 36.5 171t77.5 128q119 134 320 134q106 0 191 -34t138.5 -92t82 -131.5t28.5 -154.5q0 -141 -98 -287q-52 -79 -195 -246l-213 -251h510v-193h-917z " />
<glyph unicode="3" d="M98 371h201q12 -98 77 -153.5t159 -55.5q80 0 135 37.5t77.5 92t22.5 120.5q0 108 -67.5 165.5t-170.5 57.5h-40v176h40q216 0 216 186q0 99 -58.5 153t-150.5 54q-83 0 -137.5 -49.5t-61.5 -136.5h-201q3 116 68 213q57 84 146.5 121t189.5 37q183 0 294 -104.5 t111 -272.5q0 -191 -149 -291q172 -93 172 -313q0 -57 -12 -112.5t-43 -114.5t-78.5 -103t-126.5 -72.5t-179 -28.5q-73 0 -135 15.5t-104 39.5t-75.5 57.5t-53 65t-33.5 66.5q-30 74 -33 150z" />
<glyph unicode="4" d="M41 195l877 1271v-1079h147v-192h-147v-195h-201v195h-676zM410 387h307v455z" />
<glyph unicode="5" d="M57 233l158 132q18 -40 41.5 -73.5t58 -64t83.5 -48t106 -17.5q137 0 214 87.5t77 219.5q0 130 -76.5 213.5t-212.5 83.5q-153 0 -240 -119h-67l213 719h565v-192h-422l-68 -228q36 4 58 4q180 0 299 -102q155 -132 155 -367q0 -96 -31 -184t-91 -160.5t-161 -116 t-229 -43.5q-286 0 -430 256z" />
<glyph unicode="6" d="M123 418q0 96 36 177.5t99 168.5l475 649l152 -113l-326 -444q38 6 74 6q57 0 113 -15.5t109.5 -49.5t94.5 -83t65.5 -122t24.5 -160q0 -196 -123 -325.5t-331 -129.5q-112 0 -202 38t-146 101.5t-85.5 141t-29.5 160.5zM328 422q0 -113 72.5 -186.5t181.5 -73.5 t181.5 73.5t72.5 186.5t-72.5 186.5t-185.5 73.5q-107 0 -178.5 -73t-71.5 -187z" />
<glyph unicode="7" d="M102 55l680 1119h-671v192h1015l-860 -1413z" />
<glyph unicode="8" d="M152 389q0 63 16 116.5t36.5 86.5t49.5 60.5t46.5 38.5t35.5 20q-150 104 -150 288q0 119 54.5 209t143.5 135.5t198 45.5q167 0 281 -105.5t114 -284.5q0 -184 -150 -288q18 -9 35.5 -20t46.5 -38.5t50 -60.5t37 -86.5t16 -116.5q0 -127 -61.5 -222.5t-158 -142.5 t-210.5 -47t-210.5 47t-158 142.5t-61.5 222.5zM356 393q0 -102 63.5 -166.5t162.5 -64.5t162 64.5t63 166.5q0 97 -63.5 162.5t-161.5 65.5q-99 0 -162.5 -65.5t-63.5 -162.5zM375 997q0 -99 64 -151.5t143 -52.5t142.5 52.5t63.5 151.5q0 92 -57.5 149.5t-148.5 57.5 t-149 -57.5t-58 -149.5z" />
<glyph unicode="9" d="M123 934q0 195 124.5 325t330.5 130q112 0 202 -38t145.5 -101.5t85 -141t29.5 -160.5q0 -96 -36 -177.5t-99 -168.5l-475 -649l-151 113l325 444q-30 -6 -63 -6q-74 0 -147 28t-134 79.5t-99 136t-38 186.5zM328 944q0 -113 72.5 -186.5t185.5 -73.5q107 0 178.5 73 t71.5 187q0 113 -72.5 186.5t-181.5 73.5t-181.5 -73.5t-72.5 -186.5z" />
<glyph unicode=":" horiz-adv-x="516" d="M135 98q0 51 36 87t87 36t87 -36t36 -87t-36 -87t-87 -36t-87 36t-36 87zM135 762q0 51 36 87t87 36t87 -36t36 -87t-36 -87t-87 -36t-87 36t-36 87z" />
<glyph unicode=";" horiz-adv-x="655" d="M20 -264l209 520l181 -70l-254 -505zM184 762q0 51 36 87t87 36t87 -36t36 -87t-36 -87t-87 -36t-87 36t-36 87z" />
<glyph unicode="&#x3c;" horiz-adv-x="1024" d="M68 596v168l888 432v-197l-675 -319l675 -320v-196z" />
<glyph unicode="=" horiz-adv-x="1024" d="M68 446v172h888v-172h-888zM68 778v172h888v-172h-888z" />
<glyph unicode="&#x3e;" horiz-adv-x="1024" d="M68 164v196l675 320l-675 319v197l888 -432v-168z" />
<glyph unicode="?" horiz-adv-x="888" d="M111 1057q0 65 20.5 122.5t60.5 104t105 73.5t147 27q147 0 240.5 -85.5t93.5 -241.5q0 -90 -31.5 -146t-89.5 -98q-16 -12 -34.5 -22.5t-31.5 -17.5t-35.5 -16.5t-31.5 -13t-36.5 -13.5t-34.5 -13q-23 -8 -38.5 -15t-35 -20.5t-29.5 -34.5t-10 -49q0 -45 28.5 -72.5 t73.5 -27.5q58 0 86 49q22 39 19 90h201q-3 -119 -54 -193q-29 -43 -68 -72t-78.5 -40.5t-64 -15t-45.5 -3.5q-58 0 -111.5 19.5t-96.5 56t-69 95.5t-26 132q0 50 14 90.5t34.5 67.5t55.5 51t65 38.5t75 31.5q11 4 32 12t29 11t22.5 9t21 9t16 8t16 9.5t12.5 9.5 q45 35 45 102q0 56 -32.5 95.5t-96.5 39.5q-65 0 -97 -41t-32 -104q0 -23 9 -68h-209q-4 47 -4 70zM324 98q0 51 35.5 87t86.5 36t87 -36t36 -87t-36 -87t-87 -36t-86.5 36t-35.5 87z" />
<glyph unicode="@" horiz-adv-x="1499" d="M70 674q0 203 92 366t255 254.5t365 91.5q134 0 252 -42t206 -118.5t139 -191.5t51 -254q0 -93 -25 -188t-74 -160q-42 -56 -105 -92.5t-130 -36.5q-64 0 -104.5 35.5t-51.5 91.5q-46 -71 -115.5 -105t-138.5 -34q-36 0 -73.5 9.5t-77 33.5t-69.5 59.5t-49.5 94 t-19.5 130.5q0 98 32.5 178.5t85 130t115 76.5t126.5 27q73 0 129.5 -33.5t85.5 -97.5l20 107h139l-79 -412q-13 -67 -13 -92q0 -43 20.5 -62.5t45.5 -19.5q32 0 66.5 25.5t56.5 56.5q34 50 52.5 131.5t18.5 144.5q0 70 -19 138t-60 131t-99 111t-144 77t-188 29 q-163 0 -297.5 -77.5t-212 -213.5t-77.5 -301q0 -180 94.5 -325.5t257.5 -207.5q102 -41 233 -41q226 0 416 84l35 -127q-189 -80 -440 -80q-305 0 -496 166q-42 36 -77.5 80.5t-73 109.5t-59 154t-21.5 189zM555 621q0 -90 44 -138.5t108 -48.5q87 0 154 78t67 199 q0 88 -45 132t-111 44q-90 0 -153.5 -71.5t-63.5 -194.5z" />
<glyph unicode="A" horiz-adv-x="1343" d="M8 0l680 1446l647 -1446h-225l-143 330h-584l-150 -330h-225zM469 526h414l-203 463z" />
<glyph unicode="B" horiz-adv-x="1077" d="M164 0v1366h207q128 0 199 -16.5t128 -55.5q158 -108 158 -309q0 -158 -115 -250q113 -34 175.5 -121.5t62.5 -195.5q0 -212 -137 -322q-77 -62 -157 -79t-208 -17h-313zM373 197h127q66 0 116.5 13t80 33t47.5 48t24 53.5t6 54.5q0 31 -6.5 58.5t-25 55.5t-47.5 48 t-78 32.5t-113 12.5h-131v-409zM373 778h63q24 0 43 1.5t55.5 12.5t61 30t44 60t19.5 97q0 190 -215 190h-71v-391z" />
<glyph unicode="C" horiz-adv-x="1269" d="M98 678q0 326 219 534q190 179 494 179q210 0 365 -99v-245q-168 151 -371 151q-221 0 -359.5 -146.5t-138.5 -373.5q0 -218 141.5 -365t358.5 -147q202 0 369 158v-248q-172 -103 -375 -103q-285 0 -484 189q-219 205 -219 516z" />
<glyph unicode="D" horiz-adv-x="1318" d="M164 0v1366h287q162 0 282 -27.5t225 -105.5q125 -94 194 -238t69 -313q0 -171 -70.5 -313.5t-204.5 -237.5q-111 -79 -225.5 -105t-274.5 -26h-282zM373 197h90q232 0 362 96q80 61 133.5 160.5t53.5 228.5q0 128 -52.5 231.5t-132.5 161.5q-130 94 -364 94h-90v-972z " />
<glyph unicode="E" horiz-adv-x="1024" d="M164 0v1366h754v-197h-545v-325h528v-197h-528v-450h545v-197h-754z" />
<glyph unicode="F" horiz-adv-x="921" d="M164 0v1366h684v-197h-475v-325h458v-197h-458v-647h-209z" />
<glyph unicode="G" horiz-adv-x="1531" d="M98 682q0 298 195 500q202 209 516 209q235 0 416 -131q83 -59 149 -146l-147 -141q-71 102 -177 163.5t-241 61.5q-217 0 -359.5 -147t-142.5 -371q0 -219 141.5 -366.5t354.5 -147.5q161 0 271.5 99t135.5 253h-340v193h564v-43q0 -122 -24 -231.5t-97 -209.5 q-31 -42 -72 -81t-104 -81t-151.5 -67t-188.5 -25q-291 0 -490 199q-209 209 -209 510z" />
<glyph unicode="H" horiz-adv-x="1331" d="M164 0v1366h209v-532h585v532h209v-1366h-209v637h-585v-637h-209z" />
<glyph unicode="I" horiz-adv-x="536" d="M164 0v1366h209v-1366h-209z" />
<glyph unicode="J" horiz-adv-x="741" d="M-37 43l103 176q58 -49 143 -49q100 0 137 92q23 59 23 219v885h209v-885q0 -100 -10 -173.5t-42 -137.5q-18 -36 -43 -67.5t-63 -62.5t-93.5 -49t-121.5 -18q-136 0 -242 70z" />
<glyph unicode="K" horiz-adv-x="1200" d="M164 0v1366h209v-545l528 545h275l-617 -618l621 -748h-279l-487 606l-41 -41v-565h-209z" />
<glyph unicode="L" horiz-adv-x="806" d="M164 0v1366h209v-1169h401v-197h-610z" />
<glyph unicode="M" horiz-adv-x="1744" d="M123 0l287 1468l475 -1060l479 1060l258 -1468h-213l-139 823l-398 -886l-393 888l-143 -825h-213z" />
<glyph unicode="N" horiz-adv-x="1527" d="M164 0v1458l991 -1038v946h209v-1450l-991 1038v-954h-209z" />
<glyph unicode="O" horiz-adv-x="1617" d="M98 682q0 148 54 279.5t147.5 226t226 149t283.5 54.5t283.5 -54.5t226 -149t147.5 -226t54 -279.5t-54 -279.5t-147.5 -226t-226 -149t-283.5 -54.5t-283.5 54.5t-226 149t-147.5 226t-54 279.5zM307 682q0 -227 141 -371.5t361 -144.5t361 144.5t141 371.5t-141 371.5 t-361 144.5t-361 -144.5t-141 -371.5z" />
<glyph unicode="P" horiz-adv-x="983" d="M164 0v1366h301q189 0 299 -74q83 -55 126.5 -144t43.5 -187q0 -186 -133 -299q-127 -107 -334 -107h-94v-555h-209zM373 748h94q131 0 198.5 58t67.5 157q0 27 -4.5 51.5t-21.5 55t-44.5 52.5t-78.5 37t-119 15h-92v-426z" />
<glyph unicode="Q" horiz-adv-x="1617" d="M98 682q0 148 54 279.5t147.5 226t226 149t283.5 54.5q150 0 282.5 -54.5t226.5 -149t148 -226t54 -279.5q0 -285 -189 -489l221 -220h-258l-102 103q-161 -103 -383 -103q-151 0 -283.5 54t-226 148t-147.5 225.5t-54 281.5zM307 682q0 -227 141 -371.5t361 -144.5 q134 0 235 53l-323 322h260l209 -207q121 139 121 348q0 227 -141 371.5t-361 144.5t-361 -144.5t-141 -371.5z" />
<glyph unicode="R" horiz-adv-x="1093" d="M164 0v1366h244q127 0 211 -18t149 -62q52 -35 87.5 -82t50 -95.5t19.5 -80.5t5 -63q0 -146 -82.5 -248t-220.5 -133l426 -584h-252l-391 559h-37v-559h-209zM373 739h65q21 0 42 2t58 8t67.5 21t60 38t46.5 63t17 92q0 211 -285 211h-71v-435z" />
<glyph unicode="S" horiz-adv-x="1056" d="M82 377l207 45q0 -100 57 -174q65 -82 178 -82q97 0 161.5 64t64.5 165q0 49 -17 89t-49 67.5t-61.5 44t-69.5 33.5l-131 55q-279 116 -279 346q0 70 27 134.5t76.5 115t126.5 81t170 30.5q166 0 274 -93q65 -58 105 -137l-168 -98q-19 48 -62 86q-60 49 -147 49 q-91 0 -142 -47t-51 -117q0 -107 148 -166l137 -55q177 -72 249 -172t72 -229q0 -194 -123.5 -316.5t-316.5 -122.5q-197 0 -321 138q-102 113 -115 266z" />
<glyph unicode="T" horiz-adv-x="876" d="M20 1169v197h836v-197h-313v-1169h-209v1169h-314z" />
<glyph unicode="U" horiz-adv-x="1339" d="M164 487v879h209v-823q0 -160 43 -236q34 -58 101.5 -99.5t152.5 -41.5t152.5 41.5t101.5 99.5q43 76 43 236v823h209v-879q0 -214 -127 -354q-148 -160 -379 -160t-379 160q-127 140 -127 354z" />
<glyph unicode="V" horiz-adv-x="1228" d="M8 1366h225l381 -952l381 952h226l-607 -1454z" />
<glyph unicode="W" horiz-adv-x="1925" d="M8 1366h225l361 -913l369 979l356 -979l373 913h225l-610 -1454l-357 969l-360 -969z" />
<glyph unicode="X" horiz-adv-x="1118" d="M20 0l431 713l-377 653h233l266 -463l273 463h233l-393 -653l412 -713h-234l-299 522l-311 -522h-234z" />
<glyph unicode="Y" horiz-adv-x="1105" d="M0 1366h238l315 -547l315 547h238l-449 -776v-590h-208v590z" />
<glyph unicode="Z" horiz-adv-x="1134" d="M61 0l672 1169h-561v197h901l-672 -1169h656v-197h-996z" />
<glyph unicode="[" horiz-adv-x="647" d="M180 -362v1855h373v-184h-172v-1487h172v-184h-373z" />
<glyph unicode="\" horiz-adv-x="1105" d="M160 1436l164 73l782 -1810l-164 -74z" />
<glyph unicode="]" horiz-adv-x="647" d="M94 -178h172v1487h-172v184h373v-1855h-373v184z" />
<glyph unicode="^" horiz-adv-x="1024" d="M33 721l350 649h258l350 -649h-213l-266 491l-266 -491h-213z" />
<glyph unicode="_" horiz-adv-x="819" d="M0 -119h819v-176h-819v176z" />
<glyph unicode="`" horiz-adv-x="1024" d="M174 1288l184 94l246 -319l-110 -70z" />
<glyph unicode="a" horiz-adv-x="1085" d="M82 432q0 103 33.5 189t91 143.5t134 89t161.5 31.5q161 0 256 -123v100h200v-862h-200v90q-101 -117 -258 -117q-128 0 -225 65.5t-145 169t-48 224.5zM287 428q0 -115 66.5 -194.5t172.5 -79.5q102 0 173 71.5t71 200.5q0 134 -71 206.5t-173 72.5q-107 0 -173 -79.5 t-66 -197.5z" />
<glyph unicode="b" horiz-adv-x="1085" d="M127 0v1493h201v-731q95 123 256 123q85 0 161.5 -31.5t134 -89t91 -143.5t33.5 -189q0 -121 -48 -224.5t-145 -169t-225 -65.5q-157 0 -258 117v-90h-201zM315 426q0 -129 71 -200.5t173 -71.5q106 0 173 79.5t67 194.5q0 118 -66.5 197.5t-173.5 79.5 q-102 0 -173 -72.5t-71 -206.5z" />
<glyph unicode="c" horiz-adv-x="860" d="M82 428q0 206 139 340q73 69 151 93t179 24q141 0 244 -62v-264q-40 69 -106.5 107.5t-143.5 38.5q-104 0 -181 -73.5t-77 -201.5q0 -117 71 -196.5t185 -79.5q76 0 144 38.5t108 108.5v-264q-112 -64 -238 -64q-224 0 -352 131q-123 126 -123 324z" />
<glyph unicode="d" horiz-adv-x="1085" d="M82 432q0 103 33.5 189t91 143.5t134 89t161.5 31.5q161 0 256 -123v731h200v-1493h-200v90q-101 -117 -258 -117q-128 0 -225 65.5t-145 169t-48 224.5zM287 428q0 -115 66.5 -194.5t172.5 -79.5q102 0 173 71.5t71 200.5q0 134 -71 206.5t-173 72.5q-107 0 -173 -79.5 t-66 -197.5z" />
<glyph unicode="e" horiz-adv-x="995" d="M82 426q0 204 115 331.5t305 127.5q109 0 191.5 -43.5t131.5 -114.5q80 -115 80 -313v-31h-618q4 -110 74 -169.5t159 -59.5q80 0 137 47q58 45 88 118l168 -94q-49 -92 -112 -147q-59 -52 -136.5 -78.5t-152.5 -26.5q-83 0 -158.5 28t-137 81.5t-98 142.5t-36.5 201z M301 547h399q-17 72 -71 115t-127 43t-126.5 -43t-74.5 -115z" />
<glyph unicode="f" horiz-adv-x="536" d="M61 678v184h70v332q0 181 90 260q73 64 185 64q73 0 143 -31v-203q-72 41 -127 41q-49 0 -70 -31q-20 -27 -20 -98v-334h217v-184h-217v-678h-201v678h-70z" />
<glyph unicode="g" horiz-adv-x="1085" d="M82 432q0 103 33.5 189t91 143.5t134 89t161.5 31.5q158 0 256 -117v94h200v-842q0 -76 -2.5 -118t-19.5 -102t-51 -107q-51 -72 -140.5 -118t-205.5 -46q-188 0 -307 115q-111 110 -111 284v21h194v-15q0 -95 57 -158q63 -67 167 -67q60 0 103.5 22.5t65 52t34 72.5 t14.5 70t2 58v112q-99 -123 -258 -123q-128 0 -225 65.5t-145 168.5t-48 225zM287 428q0 -115 66.5 -194.5t172.5 -79.5q102 0 173 71.5t71 200.5q0 134 -71 206.5t-173 72.5q-107 0 -173 -79.5t-66 -197.5z" />
<glyph unicode="h" horiz-adv-x="995" d="M127 0v1493h201v-705q95 97 231 97q170 0 254 -117q55 -81 55 -240v-528h-200v510q0 34 -1.5 53.5t-10.5 47.5t-27 48q-42 46 -113 46q-48 0 -86.5 -20.5t-60.5 -51.5q-41 -58 -41 -217v-416h-201z" />
<glyph unicode="i" horiz-adv-x="454" d="M98 1219q0 55 37 92t92 37t92 -37t37 -92t-37 -92t-92 -37t-92 37t-37 92zM127 0v862h201v-862h-201z" />
<glyph unicode="j" horiz-adv-x="454" d="M98 1219q0 55 37 92t92 37t92 -37t37 -92t-37 -92t-92 -37t-92 37t-37 92zM127 -469v1331h201v-1331h-201z" />
<glyph unicode="k" horiz-adv-x="905" d="M127 0v1493h201v-920l280 289h266l-370 -358l397 -504h-254l-282 369l-37 -37v-332h-201z" />
<glyph unicode="l" horiz-adv-x="454" d="M127 0v1493h201v-1493h-201z" />
<glyph unicode="m" horiz-adv-x="1437" d="M127 0v862h201v-80q85 103 213 103q69 0 128 -32.5t95 -94.5q90 127 256 127q79 0 144.5 -35.5t101.5 -99.5q45 -82 45 -218v-532h-201v475q0 113 -18 154q-28 76 -115 76q-72 0 -119 -64q-39 -55 -39 -197v-444h-201v475q0 113 -18 154q-28 76 -115 76q-71 0 -118 -64 q-39 -55 -39 -197v-444h-201z" />
<glyph unicode="n" horiz-adv-x="993" d="M125 0v862h201v-80q92 103 233 103q169 0 254 -117q53 -75 53 -240v-528h-200v479q0 53 -6 92.5t-18.5 63.5t-25.5 39t-34 21.5t-35.5 8t-38.5 1.5q-33 0 -54 -3t-48 -19t-42.5 -45.5t-26.5 -86t-11 -137.5v-414h-201z" />
<glyph unicode="o" horiz-adv-x="1085" d="M82 430q0 198 132 326.5t329 128.5t329 -128.5t132 -326.5q0 -197 -132.5 -327t-328.5 -130t-328.5 130t-132.5 327zM287 428q0 -125 69 -199.5t187 -74.5t187 74.5t69 199.5q0 71 -22 126t-59 87t-81.5 48t-93.5 16t-93.5 -16t-81.5 -48t-59 -87t-22 -126z" />
<glyph unicode="p" horiz-adv-x="1085" d="M127 -469v1331h201v-94q98 117 256 117q176 0 298 -124.5t122 -324.5q0 -105 -36.5 -194.5t-96 -147t-133.5 -89.5t-152 -32q-32 0 -68.5 7.5t-92.5 38t-97 81.5v-569h-201zM315 426q0 -129 71 -200.5t173 -71.5q106 0 173 79.5t67 194.5q0 118 -66.5 197.5t-173.5 79.5 q-102 0 -173 -72.5t-71 -206.5z" />
<glyph unicode="q" horiz-adv-x="1085" d="M82 432q0 103 33.5 189t91 143.5t134 89t161.5 31.5q158 0 256 -117v94h200v-1331h-200v565q-99 -123 -258 -123q-128 0 -225 65.5t-145 168.5t-48 225zM287 428q0 -115 66.5 -194.5t172.5 -79.5q102 0 173 71.5t71 200.5q0 134 -71 206.5t-173 72.5q-107 0 -173 -79.5 t-66 -197.5z" />
<glyph unicode="r" horiz-adv-x="679" d="M127 0v862h201v-78q83 101 202 101q83 0 162 -51l-90 -183q-60 41 -113 41q-83 0 -127 -67q-34 -53 -34 -179v-446h-201z" />
<glyph unicode="s" horiz-adv-x="737" d="M70 186l168 78q15 -46 51.5 -78t89.5 -32q46 0 73 25.5t27 66.5q0 22 -7.5 40t-24 31t-28 20t-32.5 17q-29 14 -69 32t-61.5 28.5t-41.5 23.5q-102 67 -102 189q0 119 77 188.5t193 69.5q89 0 151.5 -48t94.5 -122l-166 -88q-13 36 -39 57t-57 21q-24 0 -45 -14t-21 -42 q0 -11 2.5 -20.5t10.5 -18t13 -14.5t19.5 -14t20.5 -11t25 -12t24 -12q108 -51 164 -88q104 -74 104 -193q0 -123 -91 -208t-224 -85q-12 0 -27 1.5t-45.5 7.5t-59.5 20.5t-60.5 36t-60 60t-46.5 87.5z" />
<glyph unicode="t" horiz-adv-x="495" d="M49 678v184h84v316h201v-316h153v-184h-153v-678h-201v678h-84z" />
<glyph unicode="u" horiz-adv-x="991" d="M127 362v500h201v-493q0 -108 37 -156q46 -59 131 -59t131 59q37 48 37 156v493h200v-500q0 -95 -18.5 -161t-73.5 -121q-107 -107 -280 -107q-169 0 -273 107q-55 55 -73.5 121t-18.5 161z" />
<glyph unicode="v" horiz-adv-x="917" d="M12 862h226l221 -491l221 491h225l-446 -923z" />
<glyph unicode="w" horiz-adv-x="1404" d="M12 862h226l223 -493l241 567l242 -567l223 493h226l-449 -923l-242 550l-241 -550z" />
<glyph unicode="x" horiz-adv-x="1015" d="M12 0l381 467l-307 395h238l190 -252l193 252h245l-317 -395l369 -467h-242l-248 322l-256 -322h-246z" />
<glyph unicode="y" horiz-adv-x="987" d="M12 862h242l254 -485l242 485h225l-686 -1331h-226l332 629z" />
<glyph unicode="z" horiz-adv-x="983" d="M16 0l559 678h-440v184h832l-555 -678h512v-184h-908z" />
<glyph unicode="{" horiz-adv-x="1024" d="M274 416v164q115 20 115 170v350q0 168 90 235q64 49 211 49h96v-172h-16q-111 0 -145 -32q-35 -35 -35 -131v-304q0 -97 -25 -151q-32 -65 -102 -96q31 -14 59 -40.5t43 -56.5q25 -54 25 -151v-303q0 -96 35 -131q35 -33 145 -33h16v-172h-96q-147 0 -211 49 q-90 68 -90 236v350q0 150 -115 170z" />
<glyph unicode="|" horiz-adv-x="1024" d="M414 -512v2048h196v-2048h-196z" />
<glyph unicode="}" horiz-adv-x="1024" d="M274 -217h17q110 0 145 33q35 35 35 131v303q0 97 25 151q15 30 43 56.5t59 40.5q-70 31 -102 96q-25 54 -25 151v304q0 96 -35 131q-34 32 -145 32h-17v172h97q147 0 211 -49q90 -67 90 -235v-350q0 -151 114 -170v-164q-114 -19 -114 -170v-350q0 -168 -90 -236 q-64 -49 -211 -49h-97v172z" />
<glyph unicode="~" horiz-adv-x="1368" d="M188 1247q40 100 103 170q76 86 188 86q79 0 226 -63q5 -2 28 -12.5t32 -14t29.5 -11.5t33.5 -11t31.5 -6t35.5 -3q57 0 100 37t68 88l117 -67q-56 -128 -136 -191q-73 -57 -170 -57q-50 0 -95 13.5t-134 51.5q-127 54 -178 54q-64 0 -105 -45q-35 -35 -59 -92z" />
<glyph unicode="&#xa9;" horiz-adv-x="1552" d="M68 682q0 202 91 364.5t253 254.5t364 92q151 0 283 -54t225.5 -148t147 -226t53.5 -283t-53.5 -283t-147 -226t-225.5 -148t-283 -54q-202 0 -364 92t-253 254.5t-91 364.5zM182 682q0 -169 76 -308t212.5 -219.5t305.5 -80.5t305.5 80.5t212.5 219.5t76 308 t-75.5 307.5t-212 219.5t-306.5 81t-306.5 -81t-212 -219.5t-75.5 -307.5zM367 680q0 187 127.5 307.5t320.5 120.5q124 0 234 -64v-178q-52 51 -116.5 77t-125.5 26q-51 0 -100 -18t-91 -52t-68 -91t-26 -128q0 -125 80 -204t207 -79t240 105v-180q-115 -64 -242 -64 q-189 0 -314.5 120.5t-125.5 301.5z" />
<glyph unicode="&#xab;" horiz-adv-x="1044" d="M82 444l338 443l133 -96l-266 -347l266 -346l-133 -96zM463 444l338 443l133 -96l-266 -347l266 -346l-133 -96z" />
<glyph unicode="&#xad;" horiz-adv-x="655" d="M82 332v209h491v-209h-491z" />
<glyph unicode="&#xae;" horiz-adv-x="1552" d="M68 682q0 202 91 364.5t253 254.5t364 92q151 0 283 -54t225.5 -148t147 -226t53.5 -283t-53.5 -283t-147 -226t-225.5 -148t-283 -54q-202 0 -364 92t-253 254.5t-91 364.5zM182 682q0 -169 76 -308t212.5 -219.5t305.5 -80.5t305.5 80.5t212.5 219.5t76 308 t-75.5 307.5t-212 219.5t-306.5 81t-306.5 -81t-212 -219.5t-75.5 -307.5zM561 313v766h203q69 0 121.5 -17t80.5 -41.5t45.5 -58t22 -59.5t4.5 -53q0 -83 -46 -139.5t-124 -77.5l254 -320h-178l-237 303v-303h-146zM707 737h28q78 0 119 29t41 80q0 104 -156 104h-32v-213z " />
<glyph unicode="&#xbb;" horiz-adv-x="1044" d="M111 98l266 346l-266 347l133 96l338 -443l-338 -442zM492 98l266 346l-266 347l133 96l338 -443l-338 -442z" />
<glyph unicode="&#x401;" horiz-adv-x="1024" d="M164 0v1366h754v-197h-545v-325h528v-197h-528v-450h545v-197h-754zM213 1628q0 54 36.5 90.5t90.5 36.5t90.5 -36.5t36.5 -90.5t-36.5 -90.5t-90.5 -36.5t-90.5 36.5t-36.5 90.5zM614 1628q0 54 36.5 90.5t90.5 36.5t90.5 -36.5t36.5 -90.5t-36.5 -90.5t-90.5 -36.5 t-90.5 36.5t-36.5 90.5z" />
<glyph unicode="&#x402;" horiz-adv-x="1433" d="M20 1169v197h975v-197h-450v-364q134 14 266 14q203 0 322 -63q202 -107 202 -367q0 -188 -113.5 -300t-291.5 -112q-142 0 -262 62l49 190q103 -59 215 -59q88 0 141 57.5t53 155.5q0 154 -122 209q-74 35 -203 35q-106 0 -256 -15v-612h-209v1169h-316z" />
<glyph unicode="&#x403;" horiz-adv-x="876" d="M164 0v1366h684v-197h-475v-1169h-209zM381 1571l283 284l176 -122l-361 -244z" />
<glyph unicode="&#x404;" horiz-adv-x="1269" d="M98 678q0 326 219 534q190 179 494 179q210 0 365 -99v-245q-165 151 -371 151q-236 0 -365 -143q-96 -105 -121 -256h672v-197h-678q14 -165 125 -285q64 -71 160 -111t209 -40q202 0 369 158v-248q-172 -103 -375 -103q-285 0 -484 189q-219 205 -219 516z" />
<glyph unicode="&#x405;" horiz-adv-x="1056" d="M82 377l207 45q0 -100 57 -174q65 -82 178 -82q97 0 161.5 64t64.5 165q0 49 -17 89t-49 67.5t-61.5 44t-69.5 33.5l-131 55q-279 116 -279 346q0 70 27 134.5t76.5 115t126.5 81t170 30.5q166 0 274 -93q65 -58 105 -137l-168 -98q-19 48 -62 86q-60 49 -147 49 q-91 0 -142 -47t-51 -117q0 -107 148 -166l137 -55q177 -72 249 -172t72 -229q0 -194 -123.5 -316.5t-316.5 -122.5q-197 0 -321 138q-102 113 -115 266z" />
<glyph unicode="&#x406;" horiz-adv-x="536" d="M164 0v1366h209v-1366h-209z" />
<glyph unicode="&#x407;" horiz-adv-x="536" d="M0 1628q0 46 34.5 80.5t80.5 34.5t80 -34.5t34 -80.5t-34 -80.5t-80 -34.5t-80.5 34.5t-34.5 80.5zM164 0v1366h209v-1366h-209zM307 1628q0 46 34.5 80.5t80.5 34.5t80.5 -34.5t34.5 -80.5t-34.5 -80.5t-80.5 -34.5t-80.5 34.5t-34.5 80.5z" />
<glyph unicode="&#x408;" horiz-adv-x="741" d="M-37 43l103 176q58 -49 143 -49q100 0 137 92q23 59 23 219v885h209v-885q0 -100 -10 -173.5t-42 -137.5q-18 -36 -43 -67.5t-63 -62.5t-93.5 -49t-121.5 -18q-136 0 -242 70z" />
<glyph unicode="&#x409;" horiz-adv-x="1843" d="M29 0v193q43 -13 75 -13q76 0 123 47q25 24 40 59t20.5 87.5t6.5 82.5t1 95v815h872v-551h156q220 0 342 -108q60 -52 94.5 -130.5t34.5 -170.5q0 -98 -43.5 -187.5t-126.5 -144.5q-110 -74 -299 -74h-367v1169h-454v-680q0 -72 -3.5 -119t-15.5 -107t-41 -107.5 t-75 -85.5q-101 -82 -248 -82q-42 0 -92 12zM1167 197h148q20 0 33.5 0.5t44.5 4.5t53.5 11t51.5 22t47 36.5t31 55t13 76.5q0 32 -6.5 60.5t-25 57.5t-47.5 50t-78 34t-113 13h-152v-421z" />
<glyph unicode="&#x40a;" horiz-adv-x="1843" d="M164 0v1366h209v-551h585v551h209v-551h156q220 0 342 -108q60 -52 94.5 -130.5t34.5 -170.5q0 -98 -43.5 -187.5t-126.5 -144.5q-110 -74 -299 -74h-367v618h-585v-618h-209zM1167 197h148q20 0 33.5 0.5t44.5 4.5t53.5 11t51.5 22t47 36.5t31 55t13 76.5 q0 32 -6.5 60.5t-25 57.5t-47.5 50t-78 34t-113 13h-152v-421z" />
<glyph unicode="&#x40b;" horiz-adv-x="1413" d="M20 1169v197h975v-197h-450v-364q126 14 264 14q242 0 348 -84q133 -105 133 -332v-403h-209v373q0 44 -2 70.5t-19.5 70.5t-51.5 70q-55 43 -217 43q-103 0 -246 -15v-612h-209v1169h-316z" />
<glyph unicode="&#x40c;" horiz-adv-x="1200" d="M164 0v1366h209v-545l528 545h275l-617 -618l621 -748h-279l-487 606l-41 -41v-565h-209zM469 1571l283 284l176 -122l-361 -244z" />
<glyph unicode="&#x40e;" horiz-adv-x="1167" d="M12 1366h254l359 -709l313 709h217l-616 -1366h-217l184 408zM264 1704l164 74q11 -39 37 -65t57.5 -35.5t48.5 -12t31 -2.5t31 2.5t48.5 12t57.5 35.5t37 65l164 -74q-25 -60 -66.5 -103.5t-90 -65t-93 -31t-88.5 -9.5t-88.5 9.5t-93 31t-90 65t-66.5 103.5z" />
<glyph unicode="&#x40f;" horiz-adv-x="1310" d="M164 0v1366h209v-1169h565v1169h209v-1366h-393v-369h-197v369h-393z" />
<glyph unicode="&#x410;" horiz-adv-x="1343" d="M8 0l680 1446l647 -1446h-225l-143 330h-584l-150 -330h-225zM469 526h414l-203 463z" />
<glyph unicode="&#x411;" horiz-adv-x="1077" d="M164 0v1366h684v-197h-475v-354h135q220 0 342 -108q60 -52 94.5 -130.5t34.5 -170.5q0 -98 -43.5 -187.5t-126.5 -144.5q-110 -74 -299 -74h-346zM373 197h127q20 0 33.5 0.5t44.5 4.5t53.5 11t51.5 22t47 36.5t31 55t13 76.5q0 32 -6.5 60.5t-25 57.5t-47.5 50t-78 34 t-113 13h-131v-421z" />
<glyph unicode="&#x412;" horiz-adv-x="1077" d="M164 0v1366h207q128 0 199 -16.5t128 -55.5q158 -108 158 -309q0 -158 -115 -250q113 -34 175.5 -121.5t62.5 -195.5q0 -212 -137 -322q-77 -62 -157 -79t-208 -17h-313zM373 197h127q66 0 116.5 13t80 33t47.5 48t24 53.5t6 54.5q0 31 -6.5 58.5t-25 55.5t-47.5 48 t-78 32.5t-113 12.5h-131v-409zM373 778h63q24 0 43 1.5t55.5 12.5t61 30t44 60t19.5 97q0 190 -215 190h-71v-391z" />
<glyph unicode="&#x413;" horiz-adv-x="876" d="M164 0v1366h684v-197h-475v-1169h-209z" />
<glyph unicode="&#x414;" horiz-adv-x="1331" d="M29 197q70 -3 127 49.5t90 134.5q49 123 49 358v627h852v-1169h156v-504h-197v307h-881v-307h-196v504zM350 197h588v972h-434v-430q0 -257 -47 -381q-36 -93 -107 -161z" />
<glyph unicode="&#x415;" horiz-adv-x="1024" d="M164 0v1366h754v-197h-545v-325h528v-197h-528v-450h545v-197h-754z" />
<glyph unicode="&#x416;" horiz-adv-x="1732" d="M8 0l576 739l-564 627h254l488 -551v551h209v-551l487 551h254l-563 -627l575 -739h-258l-462 602l-33 -37v-565h-209v565l-33 37l-463 -602h-258z" />
<glyph unicode="&#x417;" horiz-adv-x="1167" d="M53 303l185 94q39 -97 123.5 -163t211.5 -66q118 0 189 45q102 60 102 180q0 63 -26.5 108.5t-61.5 68t-86 35.5t-83 15.5t-70 2.5h-123v196h123q99 0 172 51.5t73 153.5q0 75 -47 119q-55 53 -164 53q-176 0 -278 -139l-137 133q158 199 411 199q190 0 303 -97 q113 -96 113 -252q0 -91 -42.5 -166.5t-125.5 -121.5q52 -14 93.5 -39t67.5 -53t45 -63.5t27.5 -63.5t14 -60t6 -46t0.5 -28q0 -215 -178 -333q-139 -91 -324 -91q-92 0 -172 23.5t-133 58t-97.5 82t-68.5 85.5t-43 79z" />
<glyph unicode="&#x418;" horiz-adv-x="1458" d="M164 -61v1427h209v-924l921 981v-1423h-209v920z" />
<glyph unicode="&#x419;" horiz-adv-x="1458" d="M164 -61v1427h209v-924l921 981v-1423h-209v920zM391 1704l164 74q11 -39 37 -65t57.5 -35.5t48.5 -12t31 -2.5t31 2.5t48.5 12t57.5 35.5t37 65l164 -74q-39 -104 -133.5 -156.5t-204.5 -52.5t-204.5 52.5t-133.5 156.5z" />
<glyph unicode="&#x41a;" horiz-adv-x="1200" d="M164 0v1366h209v-545l528 545h275l-617 -618l621 -748h-279l-487 606l-41 -41v-565h-209z" />
<glyph unicode="&#x41b;" horiz-adv-x="1331" d="M29 0v193q43 -13 75 -13q76 0 123 47q25 24 40 59t20.5 87.5t6.5 82.5t1 95v815h872v-1366h-209v1169h-454v-680q0 -72 -3.5 -119t-15.5 -107t-41 -107.5t-75 -85.5q-101 -82 -248 -82q-42 0 -92 12z" />
<glyph unicode="&#x41c;" horiz-adv-x="1744" d="M123 0l287 1468l475 -1060l479 1060l258 -1468h-213l-139 823l-398 -886l-393 888l-143 -825h-213z" />
<glyph unicode="&#x41d;" horiz-adv-x="1331" d="M164 0v1366h209v-532h585v532h209v-1366h-209v637h-585v-637h-209z" />
<glyph unicode="&#x41e;" horiz-adv-x="1617" d="M98 682q0 148 54 279.5t147.5 226t226 149t283.5 54.5t283.5 -54.5t226 -149t147.5 -226t54 -279.5t-54 -279.5t-147.5 -226t-226 -149t-283.5 -54.5t-283.5 54.5t-226 149t-147.5 226t-54 279.5zM307 682q0 -227 141 -371.5t361 -144.5t361 144.5t141 371.5t-141 371.5 t-361 144.5t-361 -144.5t-141 -371.5z" />
<glyph unicode="&#x41f;" horiz-adv-x="1331" d="M164 0v1366h1003v-1366h-209v1169h-585v-1169h-209z" />
<glyph unicode="&#x420;" horiz-adv-x="983" d="M164 0v1366h301q189 0 299 -74q83 -55 126.5 -144t43.5 -187q0 -186 -133 -299q-127 -107 -334 -107h-94v-555h-209zM373 748h94q131 0 198.5 58t67.5 157q0 27 -4.5 51.5t-21.5 55t-44.5 52.5t-78.5 37t-119 15h-92v-426z" />
<glyph unicode="&#x421;" horiz-adv-x="1269" d="M98 678q0 326 219 534q190 179 494 179q210 0 365 -99v-245q-168 151 -371 151q-221 0 -359.5 -146.5t-138.5 -373.5q0 -218 141.5 -365t358.5 -147q202 0 369 158v-248q-172 -103 -375 -103q-285 0 -484 189q-219 205 -219 516z" />
<glyph unicode="&#x422;" horiz-adv-x="876" d="M20 1169v197h836v-197h-313v-1169h-209v1169h-314z" />
<glyph unicode="&#x423;" horiz-adv-x="1167" d="M12 1366h254l359 -709l313 709h217l-616 -1366h-217l184 408z" />
<glyph unicode="&#x424;" horiz-adv-x="1691" d="M98 725q0 113 35.5 207.5t107.5 168t190.5 115t273.5 41.5h36v164h209v-164h37q155 0 273.5 -41.5t190 -115t107 -168t35.5 -207.5t-35.5 -207.5t-107 -168t-190 -115t-273.5 -41.5h-37v-193h-209v193h-36q-155 0 -273.5 41.5t-190.5 115t-107.5 168t-35.5 207.5z M307 725q0 -153 99 -246.5t294 -93.5h41v680h-41q-195 0 -294 -93.5t-99 -246.5zM950 385h41q195 0 294 93.5t99 246.5t-99 246.5t-294 93.5h-41v-680z" />
<glyph unicode="&#x425;" horiz-adv-x="1118" d="M20 0l431 713l-377 653h233l266 -463l273 463h233l-393 -653l412 -713h-234l-299 522l-311 -522h-234z" />
<glyph unicode="&#x426;" horiz-adv-x="1351" d="M164 0v1366h209v-1169h565v1169h209v-1169h176v-504h-197v307h-962z" />
<glyph unicode="&#x427;" horiz-adv-x="1241" d="M123 963v403h209v-373q0 -31 1.5 -51t7.5 -53t22.5 -60t42.5 -47q55 -43 217 -43q106 0 245 15v612h209v-1366h-209v561q-187 -14 -278 -14q-228 0 -334 84q-133 105 -133 332z" />
<glyph unicode="&#x428;" horiz-adv-x="1921" d="M164 0v1366h209v-1169h483v1169h209v-1169h483v1169h209v-1366h-1593z" />
<glyph unicode="&#x429;" horiz-adv-x="1961" d="M164 0v1366h209v-1169h483v1169h209v-1169h483v1169h209v-1169h176v-504h-196v307h-1573z" />
<glyph unicode="&#x42a;" horiz-adv-x="1212" d="M20 1169v197h517v-551h155q220 0 342 -108q60 -52 94.5 -130.5t34.5 -170.5q0 -98 -43.5 -187.5t-126.5 -144.5q-110 -74 -299 -74h-366v1169h-308zM537 197h147q20 0 33.5 0.5t44.5 4.5t53.5 11t51.5 22t47 36.5t31 55t13 76.5q0 32 -6.5 60.5t-25 57.5t-47.5 50t-78 34 t-113 13h-151v-421z" />
<glyph unicode="&#x42b;" horiz-adv-x="1515" d="M164 0v1366h209v-551h155q220 0 342 -108q60 -52 94.5 -130.5t34.5 -170.5q0 -98 -43.5 -187.5t-126.5 -144.5q-110 -74 -299 -74h-366zM373 197h147q20 0 33.5 0.5t44.5 4.5t54 11t51.5 22t47 36.5t31.5 55t13 76.5q0 32 -6.5 60.5t-25.5 57.5t-48 50t-78 34t-113 13 h-151v-421zM1143 0v1366h209v-1366h-209z" />
<glyph unicode="&#x42c;" horiz-adv-x="1048" d="M164 0v1366h209v-551h155q220 0 342 -108q60 -52 94.5 -130.5t34.5 -170.5q0 -98 -43.5 -187.5t-126.5 -144.5q-110 -74 -299 -74h-366zM373 197h147q20 0 33.5 0.5t44.5 4.5t54 11t51.5 22t47 36.5t31.5 55t13 76.5q0 32 -6.5 60.5t-25.5 57.5t-48 50t-78 34t-113 13 h-151v-421z" />
<glyph unicode="&#x42d;" horiz-adv-x="1273" d="M98 76v248q168 -158 375 -158q118 0 212.5 39.5t156.5 105.5q110 116 119 291h-678v197h671q-20 160 -125 268q-126 131 -344 131q-212 0 -387 -151v245q157 99 389 99q301 0 486 -179q203 -196 203 -534q0 -317 -203 -516q-192 -189 -486 -189q-213 0 -389 103z" />
<glyph unicode="&#x42e;" horiz-adv-x="2048" d="M164 0v1366h209v-543h205q36 215 182 365q199 203 500 203q147 0 275.5 -54.5t219.5 -148.5t143 -225.5t52 -280.5q0 -198 -89 -360.5t-247.5 -255.5t-353.5 -93q-99 0 -186 21t-152.5 58t-112.5 76t-84 85q-63 77 -103.5 183.5t-43.5 230.5h-205v-627h-209zM778 682 q0 -226 135 -371t347 -145t346.5 145t134.5 371t-134.5 371t-346.5 145t-347 -145t-135 -371z" />
<glyph unicode="&#x42f;" horiz-adv-x="1093" d="M41 0l405 569q-54 6 -110.5 30.5t-99.5 62.5q-117 102 -117 290q0 173 104 285q42 45 92 73.5t105 39t89.5 13.5t84.5 3h336v-1366h-209v547h-49l-373 -547h-258zM319 952q0 -110 78 -164q73 -49 209 -49h115v435h-103q-83 0 -138.5 -13.5t-94.5 -50.5q-66 -62 -66 -158z " />
<glyph unicode="&#x430;" horiz-adv-x="1085" d="M82 432q0 103 33.5 189t91 143.5t134 89t161.5 31.5q161 0 256 -123v100h200v-862h-200v90q-101 -117 -258 -117q-128 0 -225 65.5t-145 169t-48 224.5zM287 428q0 -115 66.5 -194.5t172.5 -79.5q102 0 173 71.5t71 200.5q0 134 -71 206.5t-173 72.5q-107 0 -173 -79.5 t-66 -197.5z" />
<glyph unicode="&#x431;" horiz-adv-x="1085" d="M82 530q0 202 30 345t101 247q97 145 258 185l143 34q142 35 164 113h205q-22 -106 -94 -184t-176 -107l-135 -37q-56 -16 -83.5 -25.5t-70 -37t-70.5 -66.5q-33 -44 -51 -109.5t-20 -123.5h2q90 121 293 121q181 0 301 -123q125 -128 125 -328q0 -201 -132 -331 t-329 -130t-316 115q-50 47 -81.5 105.5t-44 124t-16 109t-3.5 103.5zM287 428q0 -125 69 -199.5t187 -74.5t187 74.5t69 199.5q0 71 -22 126t-59 87t-81.5 48t-93.5 16t-93.5 -16t-81.5 -48t-59 -87t-22 -126z" />
<glyph unicode="&#x432;" horiz-adv-x="905" d="M127 0v862h338q128 0 197 -51q79 -64 79 -166q0 -117 -102 -168q67 -13 117 -57q67 -60 67 -166q0 -125 -94 -197q-77 -57 -199 -57h-403zM328 164h149q68 0 105 24q41 27 41 76q0 53 -39 76q-34 22 -101 22h-155v-198zM328 526h102q52 0 80 19q39 24 39 69q0 44 -35 68 q-24 16 -88 16h-98v-172z" />
<glyph unicode="&#x433;" horiz-adv-x="671" d="M127 0v862h528v-184h-327v-678h-201z" />
<glyph unicode="&#x434;" horiz-adv-x="995" d="M8 184q54 3 94.5 35.5t63.5 77.5q35 74 35 227v338h647v-678h131v-430h-184v246h-602v-246h-185v430zM293 184h354v494h-254v-229q0 -188 -100 -265z" />
<glyph unicode="&#x435;" horiz-adv-x="995" d="M82 426q0 204 115 331.5t305 127.5q109 0 191.5 -43.5t131.5 -114.5q80 -115 80 -313v-31h-618q4 -110 74 -169.5t159 -59.5q80 0 137 47q58 45 88 118l168 -94q-49 -92 -112 -147q-59 -52 -136.5 -78.5t-152.5 -26.5q-83 0 -158.5 28t-137 81.5t-98 142.5t-36.5 201z M301 547h399q-17 72 -71 115t-127 43t-126.5 -43t-74.5 -115z" />
<glyph unicode="&#x436;" horiz-adv-x="1277" d="M4 0l367 469l-334 393h242l260 -319v319h200v-319l260 319h242l-334 -393l367 -469h-250l-260 346l-25 -29v-317h-200v317l-25 29l-260 -346h-250z" />
<glyph unicode="&#x437;" horiz-adv-x="901" d="M82 178l160 82q22 -54 67 -86q51 -37 125 -37q83 0 129 29q51 33 51 98q0 57 -41 84q-36 23 -114 23h-105v164h90q57 0 86 20q35 25 35 70q0 47 -37 73q-33 23 -92 23q-60 0 -110 -27q-40 -20 -66 -55l-129 113q47 51 111 86q91 47 204 47q140 0 224 -62q88 -67 88 -164 q0 -70 -34.5 -114.5t-84.5 -67.5q60 -9 113 -55q67 -63 67 -152q0 -69 -33 -130.5t-88 -98.5q-45 -31 -115.5 -49.5t-138.5 -18.5q-144 0 -247 72q-68 48 -115 133z" />
<glyph unicode="&#x438;" horiz-adv-x="1044" d="M127 -66v928h201v-489l590 567v-940h-201v502z" />
<glyph unicode="&#x439;" horiz-adv-x="1044" d="M127 -66v928h201v-489l590 567v-940h-201v502zM193 1235l163 47q39 -133 168 -133q66 0 106 32t62 101l164 -47q-22 -80 -81 -137t-123.5 -81t-127.5 -24t-127.5 24t-123 81t-80.5 137z" />
<glyph unicode="&#x43a;" horiz-adv-x="905" d="M127 0v862h201v-307l286 307h267l-377 -377l397 -485h-254l-287 354l-32 -32v-322h-201z" />
<glyph unicode="&#x43b;" horiz-adv-x="962" d="M16 0v184q42 -10 81 2t61 37q30 37 30 113v526h648v-862h-201v678h-254v-342q0 -159 -82 -248q-54 -60 -130 -80t-153 -8z" />
<glyph unicode="&#x43c;" horiz-adv-x="1187" d="M29 0l209 940l356 -657l356 657l209 -940h-205l-86 432l-274 -498l-275 498l-86 -432h-204z" />
<glyph unicode="&#x43d;" horiz-adv-x="1011" d="M127 0v862h201v-319h356v319h201v-862h-201v358h-356v-358h-201z" />
<glyph unicode="&#x43e;" horiz-adv-x="1085" d="M82 430q0 198 132 326.5t329 128.5t329 -128.5t132 -326.5q0 -197 -132.5 -327t-328.5 -130t-328.5 130t-132.5 327zM287 428q0 -125 69 -199.5t187 -74.5t187 74.5t69 199.5q0 71 -22 126t-59 87t-81.5 48t-93.5 16t-93.5 -16t-81.5 -48t-59 -87t-22 -126z" />
<glyph unicode="&#x43f;" horiz-adv-x="1003" d="M127 0v862h750v-862h-201v678h-348v-678h-201z" />
<glyph unicode="&#x440;" horiz-adv-x="1085" d="M127 -469v1331h201v-94q98 117 256 117q176 0 298 -124.5t122 -324.5q0 -105 -36.5 -194.5t-96 -147t-133.5 -89.5t-152 -32q-32 0 -68.5 7.5t-92.5 38t-97 81.5v-569h-201zM315 426q0 -129 71 -200.5t173 -71.5q106 0 173 79.5t67 194.5q0 118 -66.5 197.5t-173.5 79.5 q-102 0 -173 -72.5t-71 -206.5z" />
<glyph unicode="&#x441;" horiz-adv-x="860" d="M82 428q0 206 139 340q73 69 151 93t179 24q141 0 244 -62v-264q-40 69 -106.5 107.5t-143.5 38.5q-104 0 -181 -73.5t-77 -201.5q0 -117 71 -196.5t185 -79.5q76 0 144 38.5t108 108.5v-264q-112 -64 -238 -64q-224 0 -352 131q-123 126 -123 324z" />
<glyph unicode="&#x442;" horiz-adv-x="737" d="M16 678v184h705v-184h-252v-678h-201v678h-252z" />
<glyph unicode="&#x443;" horiz-adv-x="987" d="M12 862h242l254 -485l242 485h225l-686 -1331h-226l332 629z" />
<glyph unicode="&#x444;" horiz-adv-x="1372" d="M86 432q0 209 143 332q131 113 357 113v489h200v-489q226 0 357 -113q143 -123 143 -332q0 -211 -145 -334q-132 -115 -355 -112v-455h-200v455q-223 -3 -355 112q-145 123 -145 334zM291 432q0 -146 100 -215q76 -54 195 -51v530q-121 0 -189 -45q-15 -9 -30 -23.5 t-34 -40t-30.5 -66t-11.5 -89.5zM786 166q119 -3 195 51q100 69 100 215q0 49 -11.5 89.5t-30.5 66t-34 40t-30 23.5q-68 45 -189 45v-530z" />
<glyph unicode="&#x445;" horiz-adv-x="1015" d="M12 0l381 467l-307 395h238l190 -252l193 252h245l-317 -395l369 -467h-242l-248 322l-256 -322h-246z" />
<glyph unicode="&#x446;" horiz-adv-x="1028" d="M127 0v862h201v-678h340v678h200v-678h144v-430h-185v246h-700z" />
<glyph unicode="&#x447;" horiz-adv-x="921" d="M106 586v276h201v-235q0 -88 51 -119q36 -21 101 -21q71 0 135 23v352h201v-862h-201v334q-97 -19 -176 -19q-147 0 -228 64q-37 29 -57 70.5t-23.5 70t-3.5 66.5z" />
<glyph unicode="&#x448;" horiz-adv-x="1429" d="M127 0v862h201v-678h286v678h201v-678h287v678h201v-862h-1176z" />
<glyph unicode="&#x449;" horiz-adv-x="1462" d="M127 0v862h201v-678h286v678h201v-678h287v678h201v-678h143v-430h-184v246h-1135z" />
<glyph unicode="&#x44a;" horiz-adv-x="892" d="M16 678v184h385v-305h115q41 0 67 -2t63.5 -9.5t69.5 -26.5t60 -50q68 -75 68 -188q0 -129 -78 -207q-27 -26 -57 -42.5t-67 -22.5t-61 -7.5t-67 -1.5h-313v678h-185zM401 172h93q74 0 104 18q45 32 45 89q0 58 -43 86q-33 20 -104 20h-95v-213z" />
<glyph unicode="&#x44b;" horiz-adv-x="1187" d="M127 0v862h201v-305h114q41 0 67 -2t63.5 -9.5t69.5 -26.5t60 -50q68 -75 68 -188q0 -129 -78 -207q-27 -26 -57 -42.5t-67 -22.5t-61 -7.5t-67 -1.5h-313zM328 172h92q74 0 104 18q45 32 45 89q0 58 -43 86q-33 20 -104 20h-94v-213zM860 0v862h201v-862h-201z" />
<glyph unicode="&#x44c;" horiz-adv-x="819" d="M127 0v862h201v-305h114q41 0 67 -2t63.5 -9.5t69.5 -26.5t60 -50q68 -75 68 -188q0 -129 -78 -207q-27 -26 -57 -42.5t-67 -22.5t-61 -7.5t-67 -1.5h-313zM328 172h92q74 0 104 18q45 32 45 89q0 58 -43 86q-33 20 -104 20h-94v-213z" />
<glyph unicode="&#x44d;" horiz-adv-x="876" d="M82 23v190q112 -59 242 -59q94 0 166 52t85 146h-399v185h393q-21 80 -91 124t-156 44q-122 0 -240 -56v191q106 45 233 45q224 0 352 -128t128 -331q0 -200 -128.5 -326.5t-328.5 -126.5q-147 0 -256 50z" />
<glyph unicode="&#x44e;" horiz-adv-x="1433" d="M127 0v862h201v-319h137q20 120 113 215q127 127 321 127q192 0 322.5 -128.5t130.5 -326.5q0 -197 -130 -327t-323 -130q-204 0 -332 138q-94 102 -106 247h-133v-358h-201zM651 428q0 -138 72 -206t176 -68t176 68t72 206t-72 207.5t-176 69.5t-176 -69.5t-72 -207.5z " />
<glyph unicode="&#x44f;" horiz-adv-x="856" d="M16 0l271 342q-78 11 -137 66q-72 69 -72 178q0 124 80 198q50 48 110 63t140 15h321v-862h-201v317h-41l-235 -317h-236zM258 586q0 -55 41 -84q33 -21 111 -21h118v209h-116q-72 0 -105 -18q-49 -29 -49 -86z" />
<glyph unicode="&#x451;" horiz-adv-x="999" d="M82 426q0 205 115 332t305 127q111 0 194.5 -43.5t132.5 -114.5q80 -115 80 -313v-31h-618q3 -103 67.5 -166t165.5 -63q80 0 138 47q60 50 88 118l168 -94q-42 -82 -113 -147q-119 -105 -291 -105q-198 0 -315 125t-117 328zM209 1120q0 54 36.5 90.5t90.5 36.5 t90.5 -36.5t36.5 -90.5t-36.5 -90.5t-90.5 -36.5t-90.5 36.5t-36.5 90.5zM305 547h400q-17 72 -71.5 115t-127.5 43t-126.5 -43t-74.5 -115zM578 1120q0 54 36.5 90.5t90.5 36.5t90 -36.5t36 -90.5t-36 -90.5t-90 -36.5t-90.5 36.5t-36.5 90.5z" />
<glyph unicode="&#x452;" horiz-adv-x="995" d="M-20 1130v156h147v207h201v-207h409v-156h-409v-342q95 97 231 97q170 0 254 -117q55 -81 55 -240v-712q0 -76 -17.5 -137t-72.5 -103q-70 -55 -184 -55q-87 0 -135 18v180q47 -18 96 -18q66 0 94 45q19 33 19 123v641q0 34 -1.5 53.5t-10.5 47.5t-27 48q-42 46 -113 46 q-48 0 -86.5 -20.5t-60.5 -51.5q-41 -58 -41 -217v-416h-201v1130h-147z" />
<glyph unicode="&#x453;" horiz-adv-x="671" d="M127 0v862h528v-184h-327v-678h-201zM297 1063l246 319l184 -94l-319 -295z" />
<glyph unicode="&#x454;" horiz-adv-x="876" d="M82 428q0 212 139 340q122 117 330 117q136 0 244 -58v-213q-99 91 -236 91q-89 0 -160 -44t-92 -124h393v-185h-399q13 -93 86.5 -145.5t171.5 -52.5q140 0 236 94v-213q-46 -30 -100.5 -46t-145.5 -16q-217 0 -344 131q-123 123 -123 324z" />
<glyph unicode="&#x455;" horiz-adv-x="737" d="M70 186l168 78q15 -46 51.5 -78t89.5 -32q46 0 73 25.5t27 66.5q0 22 -7.5 40t-24 31t-28 20t-32.5 17q-29 14 -69 32t-61.5 28.5t-41.5 23.5q-102 67 -102 189q0 119 77 188.5t193 69.5q89 0 151.5 -48t94.5 -122l-166 -88q-13 36 -39 57t-57 21q-24 0 -45 -14t-21 -42 q0 -11 2.5 -20.5t10.5 -18t13 -14.5t19.5 -14t20.5 -11t25 -12t24 -12q108 -51 164 -88q104 -74 104 -193q0 -123 -91 -208t-224 -85q-12 0 -27 1.5t-45.5 7.5t-59.5 20.5t-60.5 36t-60 60t-46.5 87.5z" />
<glyph unicode="&#x456;" horiz-adv-x="454" d="M98 1219q0 55 37 92t92 37t92 -37t37 -92t-37 -92t-92 -37t-92 37t-37 92zM127 0v862h201v-862h-201z" />
<glyph unicode="&#x457;" horiz-adv-x="454" d="M0 1120q0 41 28.5 70t69.5 29t70 -29t29 -70t-29 -69.5t-70 -28.5t-69.5 28.5t-28.5 69.5zM127 0v862h201v-862h-201zM258 1120q0 41 28.5 70t69.5 29t70 -29t29 -70t-29 -69.5t-70 -28.5t-69.5 28.5t-28.5 69.5z" />
<glyph unicode="&#x458;" horiz-adv-x="454" d="M98 1219q0 55 37 92t92 37t92 -37t37 -92t-37 -92t-92 -37t-92 37t-37 92zM127 -469v1331h201v-1331h-201z" />
<glyph unicode="&#x459;" horiz-adv-x="1327" d="M16 0v184q24 -4 39 -4q31 0 59.5 12t43.5 31q30 37 30 113v526h648v-305h114q41 0 67 -2t63.5 -9.5t69.5 -26.5t60 -50q68 -75 68 -188q0 -129 -78 -207q-27 -26 -57 -42.5t-67 -22.5t-61 -7.5t-67 -1.5h-313v678h-254v-342q0 -159 -82 -248q-87 -92 -231 -92 q-20 0 -52 4zM836 172h92q74 0 104 18q45 32 45 89q0 58 -43 86q-33 20 -104 20h-94v-213z" />
<glyph unicode="&#x45a;" horiz-adv-x="1376" d="M127 0v862h201v-305h356v305h201v-305h114q41 0 67 -2t64 -9.5t70 -26.5t60 -50q67 -74 67 -188q0 -129 -78 -207q-27 -26 -57 -42.5t-67 -22.5t-61 -7.5t-67 -1.5h-313v385h-356v-385h-201zM885 172h92q74 0 104 18q45 32 45 89q0 58 -43 86q-33 20 -104 20h-94v-213z " />
<glyph unicode="&#x45b;" horiz-adv-x="995" d="M-20 1130v156h147v207h201v-207h409v-156h-409v-342q95 97 231 97q170 0 254 -117q55 -81 55 -240v-528h-200v510q0 34 -1.5 53.5t-10.5 47.5t-27 48q-42 46 -113 46q-48 0 -86.5 -20.5t-60.5 -51.5q-41 -58 -41 -217v-416h-201v1130h-147z" />
<glyph unicode="&#x45c;" horiz-adv-x="905" d="M127 0v862h201v-307l286 307h267l-377 -377l397 -485h-254l-287 354l-32 -32v-322h-201zM360 1063l246 319l185 -94l-320 -295z" />
<glyph unicode="&#x45e;" horiz-adv-x="987" d="M12 862h242l254 -485l242 485h225l-686 -1331h-226l332 629zM162 1235l164 47q39 -133 168 -133q66 0 106 32t62 101l163 -47q-22 -80 -80.5 -137t-123 -81t-127.5 -24t-127.5 24t-123.5 81t-81 137z" />
<glyph unicode="&#x45f;" horiz-adv-x="995" d="M127 0v862h201v-678h340v678h200v-862h-278v-287h-184v287h-279z" />
<glyph unicode="&#x490;" horiz-adv-x="876" d="M164 0v1366h487v307h197v-504h-475v-1169h-209z" />
<glyph unicode="&#x491;" horiz-adv-x="671" d="M127 0v862h344v246h184v-430h-327v-678h-201z" />
<glyph unicode="&#x2000;" horiz-adv-x="927" />
<glyph unicode="&#x2001;" horiz-adv-x="1855" />
<glyph unicode="&#x2002;" horiz-adv-x="927" />
<glyph unicode="&#x2003;" horiz-adv-x="1855" />
<glyph unicode="&#x2004;" horiz-adv-x="618" />
<glyph unicode="&#x2005;" horiz-adv-x="463" />
<glyph unicode="&#x2006;" horiz-adv-x="309" />
<glyph unicode="&#x2007;" horiz-adv-x="309" />
<glyph unicode="&#x2008;" horiz-adv-x="231" />
<glyph unicode="&#x2009;" horiz-adv-x="371" />
<glyph unicode="&#x200a;" horiz-adv-x="103" />
<glyph unicode="&#x2010;" horiz-adv-x="655" d="M82 332v209h491v-209h-491z" />
<glyph unicode="&#x2011;" horiz-adv-x="655" d="M82 332v209h491v-209h-491z" />
<glyph unicode="&#x2012;" horiz-adv-x="655" d="M82 332v209h491v-209h-491z" />
<glyph unicode="&#x2013;" horiz-adv-x="1187" d="M102 344v184h983v-184h-983z" />
<glyph unicode="&#x2014;" horiz-adv-x="1638" d="M102 344v184h1434v-184h-1434z" />
<glyph unicode="&#x2018;" horiz-adv-x="593" d="M102 920l254 505l136 -55l-209 -520z" />
<glyph unicode="&#x2019;" horiz-adv-x="696" d="M102 905l209 520l181 -69l-254 -506z" />
<glyph unicode="&#x201a;" horiz-adv-x="696" d="M102 -264l209 520l181 -70l-254 -505z" />
<glyph unicode="&#x201c;" horiz-adv-x="946" d="M102 920l252 505l133 -55l-208 -520zM459 920l252 505l133 -55l-209 -520z" />
<glyph unicode="&#x201d;" horiz-adv-x="1048" d="M102 905l209 520l176 -69l-251 -506zM459 905l209 520l176 -69l-252 -506z" />
<glyph unicode="&#x201e;" horiz-adv-x="1048" d="M102 -264l209 520l176 -70l-251 -505zM459 -264l209 520l176 -70l-252 -505z" />
<glyph unicode="&#x2022;" horiz-adv-x="1368" d="M397 696q0 118 84.5 202.5t202.5 84.5t202.5 -84.5t84.5 -202.5t-84 -202t-203 -84t-203 84t-84 202z" />
<glyph unicode="&#x2026;" horiz-adv-x="1638" d="M164 98q0 51 36 87t87 36t87 -36t36 -87t-36 -87t-87 -36t-87 36t-36 87zM696 98q0 51 36 87t87 36t87 -36t36 -87t-36 -87t-87 -36t-87 36t-36 87zM1229 98q0 51 36 87t87 36t87 -36t36 -87t-36 -87t-87 -36t-87 36t-36 87z" />
<glyph unicode="&#x202f;" horiz-adv-x="371" />
<glyph unicode="&#x2039;" horiz-adv-x="663" d="M82 444l338 443l133 -96l-266 -347l266 -346l-133 -96z" />
<glyph unicode="&#x203a;" horiz-adv-x="663" d="M111 98l266 346l-266 347l133 96l338 -443l-338 -442z" />
<glyph unicode="&#x205f;" horiz-adv-x="463" />
<glyph unicode="&#x20ac;" d="M47 471l55 150h88q-2 18 -2 69q0 46 2 64h-143l55 149h103q38 225 169 355.5t365 130.5q109 0 199 -25.5t135 -58.5v-193q-112 100 -309 100q-155 0 -244 -83t-112 -226h585l-55 -149h-553q-2 -16 -2 -64q0 -51 2 -69h504l-55 -150h-426q23 -154 114 -235.5t244 -81.5 q194 0 307 102v-197q-40 -31 -128 -55t-206 -24q-221 0 -357 121.5t-175 369.5h-160z" />
<glyph unicode="&#x2122;" horiz-adv-x="1454" d="M0 1231v135h487v-135h-172v-643h-143v643h-172zM532 588l168 848l258 -574l261 574l165 -848h-145l-72 422l-209 -437l-208 437l-72 -422h-146z" />
<glyph unicode="&#x25fc;" horiz-adv-x="860" d="M0 0v860h860v-860h-860z" />
</font>
</defs>
</svg>
