<svg height="512pt" viewBox="0 -54 512 511" width="512pt" xmlns="http://www.w3.org/2000/svg"><path d="m496 370.617188h-10.265625v-354.117188c0-8.835938-7.164063-16-16-16h-97.59375c-8.835937 0-16 7.164062-16 16v354.117188h-35.339844v-279.453126c0-8.835937-7.164062-16-16-16h-97.59375c-8.835937 0-16 7.164063-16 16v279.453126h-35.339843v-204.785157c0-8.835937-7.164063-16-16-16h-97.59375c-8.835938 0-16 7.164063-16 16v204.785157h-10.273438c-8.835938 0-16 7.164062-16 16 0 8.835937 7.164062 16 16 16h480c8.835938 0 16-7.164063 16-16 0-8.835938-7.164062-16-16-16zm-107.863281-338.117188h65.59375v338.117188h-65.59375zm-164.929688 338.117188v-263.453126h65.59375v263.453126zm-164.933593-188.785157h65.59375v188.785157h-65.59375zm0 0"/></svg>